<svg xmlns="http://www.w3.org/2000/svg" version="1.2"><font><font-face font-family="SLGlyphIcons" ascent="800" descent="-200" font-style="normal" font-weight="400" cap-height="800" x-height="400" underline-position="-75" underline-thickness="50"/><glyph glyph-name="NULL"/><glyph glyph-name="nonmarkingreturn" horiz-adv-x="250"/><glyph glyph-name="space" horiz-adv-x="250"/><glyph glyph-name="e000" unicode="" horiz-adv-x="840" d="M653 725V579L391 324 653 70V-76L227 324l426 401z"/><glyph glyph-name="e001" unicode="" horiz-adv-x="840" d="M653 324L227-76V70l262 254-262 255v146l426-401z"/><glyph glyph-name="e002" unicode="" horiz-adv-x="840" d="M547 732V584L278 326 547 68V-80L110 326l437 406zm163-111V31L402 326l308 295z"/><glyph glyph-name="e003" unicode="" horiz-adv-x="840" d="M438 326L130 31v590l308-295zm292 0L293-80V68l269 258-269 258v148l437-406z"/><glyph glyph-name="e004" unicode="" horiz-adv-x="840" d="M420 91L47 489h136l237-245 237 245h136L420 91z"/><glyph glyph-name="e005" unicode="" horiz-adv-x="840" d="M793 91H657L420 336 183 91H47l373 398L793 91z"/><glyph glyph-name="e006" unicode="" horiz-adv-x="840" d="M177 592h96V32h-96v560zm486 93V549L418 312 663 75V-61L265 312l398 373z"/><glyph glyph-name="e007" unicode="" horiz-adv-x="840" d="M663 589h-96V29h96v560zm-88-280L177-64V72l245 237-245 237v136l398-373z"/><glyph glyph-name="e008" unicode="" horiz-adv-x="840" d="M177 590h96V30h-96v560zM663-63L265 310l398 373V-63z"/><glyph glyph-name="e009" unicode="" horiz-adv-x="840" d="M663 592h-96V32h96v560zm-486 93l398-373L177-60v745z"/><glyph glyph-name="e00a" unicode="" horiz-adv-x="840" d="M234 222q0-4-4-8-5-4-9-7t-9-7q-23-18-45-36t-44-37q-27-23-53.5-46.5T17 34q-6-5-12-11.5T-7 11q-5-5-7.5-5.5T-22 10q-3 2-6 5t-6 5q-2 4 0 6 9 11 17.5 21T1 68q23 29 48.5 56t50.5 55q8 10 17 19.5t17 18.5q1 2 1 5-20 44-40 87t-40 88q-2 5-4 9.5t-4 9.5q-1 3 2 6 8 8 19 11 3 2 5-2 6-6 9-10 30-41 60.5-81t62.5-80q5-8 11.5-14.5T229 232q1-2 2-3t2-3q1-1 1-4zm311 0q-2-5-5-8-5-4-9-7t-9-7q-23-18-45-36t-44-37q-27-23-53.5-46.5T327 34q-6-5-12-11.5T303 11q-5-5-7.5-5.5T288 10q-3 2-6 5l-5 5q-3 3-1 6 9 11 17.5 21T311 68q24 29 49 56t50 55q8 10 17 19.5t17 18.5q2 2 1 5-20 44-39.5 87T366 397q-2 5-4 9.5t-4 9.5q-3 2 1 6 8 8 19 11 3 2 5-2 6-6 9-10 30-41 60.5-81t62.5-80q5-8 11.5-14.5T539 232q1-2 2-3t2-3l2-4zm310 0q-2-5-5-8-5-4-9-7t-9-7q-23-18-45-36t-44-37q-26-23-52.5-46.5T637 34q-6-5-12-11.5T613 11q-5-5-7.5-5.5T598 10q-3 2-6 5l-5 5q-3 3-1 6 9 11 17.5 21T621 68q24 29 49 56t50 55q8 10 17 19.5t17 18.5q2 2 1 5-20 44-39.5 87T676 397q-2 5-4 9.5t-4 9.5q-2 3 1 6 8 8 19 11 3 2 5-2 6-6 9-10 30-41 60.5-81t62.5-80q5-8 11.5-14.5T849 232q1-2 2-3t2-3l2-4z"/><glyph glyph-name="e00b" unicode="" horiz-adv-x="840" d="M465 617q66 0 124.5-25.5t102-69q43.5-43.5 69-102T786 296q0-66-25.5-124.5t-69-102Q648 26 589.5.5T465-25q-49 0-94 14t-83 39l54 82q26-17 57-27t66-10q46 0 86.5 17.5t71 48q30.5 30.5 48 71T688 296q0 46-17.5 86.5t-48 71q-30.5 30.5-71 48T465 519q-37 0-70-11.5T334.5 476q-27.5-20-48-48T255 367h116L196 100 34 369l118-1q12 53 41.5 98.5t70.5 79q41 33.5 92.5 52.5T465 617z"/><glyph glyph-name="e00c" unicode="" horiz-adv-x="840" d="M593 518q-32 33-76 52t-95 19q-50 0-93.5-19T252 519q-32-33-51-76.5T182 349H77q0 71 27 134t74 109.5Q225 639 288 666t134 27q72 0 135-26.5T667 592l78 77V435H511l82 83zM317 239l-86-87q32-32 75.5-50.5T400 83q50 0 93.5 19t76.5 51q32 33 51 76.5t19 93.5h105q0-71-27-134T644 79Q597 32 534 5T400-22q-72 0-134 27T157 78L77-1v240h240z"/><glyph glyph-name="e00d" unicode="" horiz-adv-x="840" d="M128 1v164l213 197-213 197v164l292-289 292 289V559L499 362l213-197V1L420 290 128 1z"/><glyph glyph-name="e00e" unicode="" horiz-adv-x="840" d="M266 3v97l112 102-112 103v97l164-151 164 151v-97L483 202l111-102V3L430 154 266 3z"/><glyph glyph-name="e00f" unicode="" horiz-adv-x="840" d="M329 121l412 604V523L347-54 110 188v157l219-224z"/><glyph glyph-name="e010" unicode="" horiz-adv-x="840" d="M400 800q83 0 156-31.5T683 683q54-54 85.5-127T800 400q0-83-31.5-156T683 117q-54-54-127-85.5T400 0q-83 0-156 31.5T117 117q-54 54-85.5 127T0 400q0 83 31.5 156T117 683q54 54 127 85.5T400 800zm251-353H151v-94h500v94z"/><glyph glyph-name="e011" unicode="" horiz-adv-x="840" d="M593 243L337 2v88l158 153-158 152v88l256-240z"/><glyph glyph-name="e012" unicode="" horiz-adv-x="840" d="M541 284L199-37V80l210 203-210 204v117l342-320z"/><glyph glyph-name="e013" unicode="" horiz-adv-x="793" d="M427 725V579L164 324 427 70V-76L0 324l427 401zm239-40V553L429 324 666 95V-36L281 324l385 361z"/><glyph glyph-name="e014" unicode="" horiz-adv-x="696" d="M414 324L30-36V95l236 229L30 553v132l384-361zm282 0L269-76V70l262 254-262 255v146l427-401z"/><glyph glyph-name="e015" unicode="" horiz-adv-x="812" d="M0 463h148l258-269 258 269h148L406 26 0 463zm111 163h590L406 318 111 626z"/><glyph glyph-name="e016" unicode="" horiz-adv-x="812" d="M812 189H664L406 458 148 189H0l406 437 406-437zM701 26H111l295 308L701 26z"/><glyph glyph-name="e017" unicode="" horiz-adv-x="840" d="M400 800q83 0 156-31.5T683 683q54-54 85.5-127T800 400q0-83-31.5-156T683 117q-54-54-127-85.5T400 0q-83 0-156 31.5T117 117q-54 54-85.5 127T0 400q0 83 31.5 156T117 683q54 54 127 85.5T400 800zm251-353H445v201h-94V447H151v-94h200V148h94v205h206v94z"/><glyph glyph-name="e018" unicode="" horiz-adv-x="619" d="M250 72h268v656H250v72h340V0H250v72zm-1 165l177 169-177 170v-64l85-78H0v-55h334l-85-78v-64z"/><glyph glyph-name="e019" unicode="" horiz-adv-x="619" d="M413 301l85 78H164v55h334l-85 78v64l177-170-177-169v64zM340 0H0v800h340v-72H72V72h268V0z"/><glyph glyph-name="e01a" unicode="" horiz-adv-x="1210" d="M1151 665H0v135h1151V665zm0-327H0v135h1151V338zm1-338H1v135h1151V0z"/><glyph glyph-name="e01b" unicode="" horiz-adv-x="967" d="M488 73q47 46 93.5 92.5L676 260H8v101h913L560 0l-36 36q-18 18-36 37zm426 467V440H0l360 360 72-72q-46-46-92.5-93T245 540h669z"/><glyph glyph-name="e01c" unicode="" horiz-adv-x="778" d="M321 68L-11 379l332 311V577L162 423h627v-88H162l159-154V68z"/><glyph glyph-name="e01d" unicode="" horiz-adv-x="778" d="M587 447L433 606V-21h-88v627L191 447H78l311 332 311-332H587z"/><glyph glyph-name="e01e" unicode="" horiz-adv-x="778" d="M577 287l4 221L137 65l-62 62 443 443-221-3-80 80 455 15-15-455-80 80z"/><glyph glyph-name="e01f" unicode="" horiz-adv-x="778" d="M457 181l159 154H-11v88h627L457 577v113l332-311L457 68v113z"/><glyph glyph-name="e020" unicode="" horiz-adv-x="778" d="M297 191l221-4L75 631l62 62 443-443-3 220 80 81 15-455-455 15 80 80z"/><glyph glyph-name="e021" unicode="" horiz-adv-x="778" d="M191 311l154-159v627h88V152l154 159h113L389-21 78 311h113z"/><glyph glyph-name="e022" unicode="" horiz-adv-x="735" d="M700 0H0v79h700V0zM108 113H0v457h108V113zm394 0H394v377h108V113zm198 0H592v219h108V113zm-395 0H197v687h108V113z"/><glyph glyph-name="e023" unicode="" horiz-adv-x="840" d="M535 347l115 127V-2H535v349zM370 194l115 114V-2H370v196zm-168 23l66 78 49-78V-3H202v220zM166-2H37v42l129 129V-2zM38 105v115l236 244 93-95 232 241-50 48 258 103-101-256-46 52-291-305-95 95L38 105z"/><glyph glyph-name="e024" unicode="" horiz-adv-x="840" d="M155 86h561V0H68v625h87V86zm626 482l-8-76-7-75-40 39-161-162-114 115-196-198-54 54 251 254 114-115 106 107-41 41 75 8 75 8z"/><glyph glyph-name="e025" unicode="" horiz-adv-x="1000" d="M249 177l163 11 120-45 224 182-31 38-202-164-104 38-194-13-75-93 37-31 62 77zm373 322l133 31-11 47-150-35-140-192-157 68-139-65 21-45 119 57 172-75 152 209zM146 85h570V-2H58v634h88V85z"/><glyph glyph-name="e026" unicode="" horiz-adv-x="840" d="M66 677h93V0H66v677zm0-584h702V0H66v93zm161 190v176h147l91 101h141l166 83V389l-176 83-137-155-109 40-123-74zm-5-112h555v149l-176 75-128-144-118 40-133-120z"/><glyph glyph-name="e027" unicode="" horiz-adv-x="840" d="M366 372L120 125q-37 48-58 106.5T41 355q0 72 25 135t69 114l231-232zm63-34h369q-3-75-34-141T682 82Q631 33 563.5 4.5T420-24q-74 0-138.5 26.5T166 75l263 263zm0 68L184 651q49 39 109 61t127 22q72 0 136-25t114.5-69.5Q721 595 754 535t42-129H429z"/><glyph glyph-name="e028" unicode="" horiz-adv-x="840" d="M500 285q14 16 22 39h274q-8-86-50.5-157.5T636 48L500 285zm-80 181q-21 0-39.5-7.5T348 438L111 575q52 73 132 117t177 44q74 0 140-27t116.5-73.5Q727 589 758.5 526T796 390H523q-11 33-39 54.5T420 466zm0-217q11 0 22 3L579 15q-37-17-76.5-26T420-20q-97 0-177.5 44T110 141l237 137q14-14 33-21.5t40-7.5zM312 358v-11.5q0-5.5 2-10.5L77 199q-17 36-26 76t-9 83q0 43 9.5 83T78 517l236-136q-1-6-1.5-11.5T312 358z"/><glyph glyph-name="e029" unicode="" horiz-adv-x="1000"/><glyph glyph-name="e02a" unicode="" horiz-adv-x="1000"/><glyph glyph-name="e02b" unicode="" horiz-adv-x="1000"/><glyph glyph-name="e02c" unicode="" horiz-adv-x="1000"/><glyph glyph-name="e02d" unicode="" horiz-adv-x="1000"/><glyph glyph-name="e02e" unicode="" horiz-adv-x="1000"/><glyph glyph-name="e02f" unicode="" horiz-adv-x="1000"/><glyph glyph-name="e030" unicode="" horiz-adv-x="1000"/><glyph glyph-name="e031" unicode="" horiz-adv-x="840" d="M399 760q18 0 34-7t27.5-18.5q11.5-11.5 18-27T485 674q0-36-25-61.5T399 587q-36 0-61 25.5T313 674q0 18 6.5 33.5t18.5 27q12 11.5 27.5 18.5t33.5 7zm-31-62q-3 1-6 1.5t-8 .5q-12 0-22-8-8-10-8-23t7-20q8-8 21-8 10 0 16 3v12q-5-4-13-4t-13 5q-5 5-5 13 0 9 5 14 7 5 13 5 7 0 13-3v12zm60 1h-13v-23h-24v23h-13v-57h13v23h24v-23h13v57zm26-24v14h20v10h-33v-57h13v22h18v11h-18zm304-154q6-8-4-8H45q-5 0-5 3-2 1-1 2.5t2 2.5l260 112q12-29 38.5-48t59.5-19q34 0 60.5 19t37.5 48l261-112zM527 183h114v278H527V183zM744 63q0-1 1-1t-1 1q2-1 0-2V51q0-8-8-8H59q-6 0-6 8v10q0 5 4 5v1l52 61h581l50-61q3 0 4-4zM345 180h114v279H345V180zm-181 1h114v280H164V181z"/><glyph glyph-name="e032" unicode="" horiz-adv-x="840" d="M806 20q0-1 .5-1t.5-1V8q0-9-9-9H40q-9 0-9 9v10q0 4 4 6v1l59 69h651l58-69q2-2 2-4l1-1zM668 466V153H176v313h492zm152 67q6-8-4-8H21q-10 0-4 8l396 169q5 7 12 0l395-169z"/><glyph glyph-name="e033" unicode="" horiz-adv-x="840" d="M806 20q0-1 .5-1t.5-1V8q0-9-9-9H40q-9 0-9 9v10q0 4 4 6v1l59 69h651l58-69q2-2 2-4l1-1zM668 467V154H480v313h188zm-303-1V153H176v313h189zm455 67q6-8-4-8H21q-10 0-4 8l396 169q5 7 12 0l395-169z"/><glyph glyph-name="e034" unicode="" horiz-adv-x="840" d="M806 23q0-1 .5-1t.5-1V11q0-9-9-9H41q-8 0-8 9v10q0 5 4 6v1l58 69h650l57-69q3-2 3-4l1-1zM689 469V157H562v312h127zm-204-3V154H358v312h127zm-201 2V155H157v313h127zm536 67q6-8-4-8H23q-5 0-6 2.5t2 5.5l394 169q7 7 12 0l395-169z"/><glyph glyph-name="e035" unicode="" horiz-adv-x="840" d="M625 258l-43 150h-44l67-198h39l67 198h-42l-44-150zm-243-48v88h76v-88h41v198h-41v-75h-76v75h-41V210h41zm-267 0h43l13 41h73l13-41h45l-70 198h-47l-70-198zm93 153l25-78h-50l25 78zM807 21l1-2V9q0-9-9-9H39q-9 0-9 9v10q0 3 4 7l58 69h654l57-69q3-2 3-4h1v-1zm14 515q6-8-4-8H20q-10 0-4 8l396 169q7 9 12 0l397-169z"/><glyph glyph-name="e036" unicode="" horiz-adv-x="840" d="M710 348q-5 28-27 48-25 20-62 20-44 0-71-30-27-29-27-78 0-48 27-76 26-28 65-28 23 0 41 10 9 5 22 20l4-25h28v108h-83v-33h46q-3-20-17-32t-34-12q-21 0-39 15-17 15-17 53 0 36 16 55 15 18 40 18 14 0 23-4 19-9 23-29h42zm-304-90l-43 153h-45l68-202h39l69 202h-44l-44-153zm-199 40q12 0 20-3 13-6 13-22 0-19-13-25-7-4-21-4h-48v54h49zm-6 78q16 0 24-4 11-3 11-18 0-12-8-18-10-5-22-5h-48v45h43zm66 13q-16 22-52 22h-98V209h91q16 0 28 3 15 3 23 10 9 6 14 16 9 15 9 32t-7 30q-10 13-24 17 9 5 16 12 9 10 9 29t-9 31zM807 21l1-2V9q0-9-9-9H38q-8 0-8 9v10q0 4 4 7l58 69h654l57-69q1-1 3-4h1v-1zm14 515q6-8-4-8H20q-5 0-6 2.5t2 5.5l396 169q7 9 12 0l397-169z"/><glyph glyph-name="e037" unicode="" horiz-adv-x="840" d="M373 409V211h140v36h-97v162h-43zm242-151l-43 150h-44l67-198h39l67 198h-42l-44-150zm-490-48h43l13 41h73l13-41h45l-70 198h-47l-70-198zm93 153l25-78h-50l25 78zM807 21l1-2V9q0-9-9-9H39q-9 0-9 9v10q0 3 4 7l58 69h654l57-69q3-2 3-4h1v-1zm14 515q6-8-4-8H20q-10 0-4 8l396 169q7 9 12 0l397-169z"/><glyph glyph-name="e038" unicode="" horiz-adv-x="888" d="M180 780q37 0 70-14t57.5-38.5Q332 703 346 670t14-70q0-37-14-70t-38.5-57.5Q283 448 250 434t-70-14q-37 0-70 14t-57.5 38.5Q28 497 14 530T0 600q0 37 14 70t38.5 57.5Q77 752 110 766t70 14zm56-193q1 3 1.5 5.5t.5 5.5q0 9-3 15-5 7-10 13-2 2-5.5 4.5T212 635q-7 5-14 8-4 2-7.5 4t-7.5 4l-7 3.5q-3 1.5-5 3.5-6 4-9 9-4 4-4 10 0 8 6 14 7 5 14 5 11 0 16-5 2-3 4-9 1-3 2-5h26q0 3-1 6-1 2-1.5 5t-1.5 5q-2 5-4 6.5l-6 4.5q-6 6-15 9t-19 3q-7 0-17-2-8-3-15-8-6-5-11-13-4-7-4-17 0-7 2-13 4-8 8-11-13-6-19-14-7-8-7-22 0-10 4-15 3-7 9-13 3-2 6.5-5t7.5-5q4-2 7.5-4t7.5-4 7.5-4 7.5-4 7.5-4q3.5-2 6.5-4l4.5-4.5 4.5-4.5q4-8 4-12 0-11-6-15-5-4-15-4-13 0-19 7-3 3-5 12-1 4-1 9h-26q0-5 1-9t1-7.5q0-3.5 2-5.5 5-10 11-15 5-6 16-10 9-3 20-3 8 0 18 2 8 3 15 8 6 5 11 13 4 7 4 18 0 10-3 18-5 7-10 13 7 2 10 5l4 4 4 4q4 6 5 10zm-41 28q10-4 14-10 3-5 3-10 0-8-4-12t-10-7l-44 24q-3 2-7 6-3 3-4 5t-1 2.5-1 2.5v3q0 8 4 12 4 6 11 7l39-23zm179-487q-2-1-3-1t-3-1q-85-16-173-4-26 3-50.5 9.5T97 152q-8 5-16.5 12T70 179q-3 15-2 30t1 28q12-6 24-14t26-13q48-19 98-22.5t101 1.5q20 2 41 5.5t44 6.5q-2-6-3-12t-5-11q-9-11-14.5-22.5T374 128zM394 4q-4-2-13-5-57-17-114.5-19T151-12q-23 4-45.5 11T63 20q-7 5-12.5 12T43 47q-2 14-1.5 28.5T42 107q17-20 38-29t44-15q48-12 96-13.5t97 4.5q14 2 28 5t26 5q6-15 11.5-30T394 4zm424 107q0-13-.5-24t.5-22q2-14-4.5-24T796 24q-10-5-20-10.5T755 5q-57-18-115-20T523-7q-23 5-45.5 11.5T435 26q-6 5-12 11t-7 14q-2 14-1.5 29t.5 32q16-18 34.5-27T488 71q58-16 116-17t117 11q26 5 51.5 14.5T818 111zm-10 274q0-13-.5-24.5t.5-22.5q1-25-20-39-11-6-21.5-11.5T745 279q-57-18-115-20t-117 8q-23 4-45.5 11T425 299q-6 5-12 11.5t-7 13.5q-2 15-1.5 29.5t.5 31.5q16-17 35-26.5t39-14.5q57-15 115-16t117 10q26 5 51 15t46 32zm10 137q0-11-.5-19.5t.5-16.5q4-24-7-38t-31-23q-10-5-25-10-57-17-115-19t-117 8q-23 4-45 11t-42 21q-7 5-13 11.5t-7 14.5q-2 14-1.5 28.5t.5 31.5q16-17 34.5-26.5T488 481q58-15 116-16t117 10q26 5 51.5 15t45.5 32zM398 272q-8-3-13.5-5t-10.5-4l-38-8q-19-4-38-6-51-5-101.5-1.5T97 269q-14 5-26.5 12.5T47 298q-11 9-11 22t12 23q11 9 23 16.5T97 372q63 21 125.5 22T348 384q9-2 13-5.5t4-14.5q-1-25 3-49.5t30-42.5zm448-42q-1-5-2-9t0-8q4-26-8.5-40T803 150q-6-2-11.5-4t-11.5-4q-57-18-114.5-20T550 130q-24 4-46.5 11T461 162q-6 5-12 11t-7 14q-3 14-2 29t1 32q16-16 31.5-25t40.5-16q50-14 100-16t101 5q20 3 39.5 7.5T791 215q15 6 28 15.5t27 17.5v-18zM623 674q8-2 12-2 29-2 57-5.5t56-13.5q25-9 48-24 19-13 19-29.5T797 569q-8-6-17-11.5t-19-7.5q-24-7-48.5-13t-49.5-8q-48-6-95.5-3T474 545q-15 5-29 12.5T418 575q-14 10-13.5 23.5T417 623q5 5 11.5 9.5T442 641q24 13 50.5 18.5T546 669q13 2 25.5 2.5T597 674h26z"/><glyph glyph-name="e039" unicode="" horiz-adv-x="837"/><glyph glyph-name="e03a" unicode="" horiz-adv-x="1000"/><glyph glyph-name="e03b" unicode="" horiz-adv-x="1000"/><glyph glyph-name="e03c" unicode="" horiz-adv-x="1000"/><glyph glyph-name="e03d" unicode="" horiz-adv-x="1000"/><glyph glyph-name="e03e" unicode="" horiz-adv-x="1000"/><glyph glyph-name="e03f" unicode="" horiz-adv-x="888"/><glyph glyph-name="e040" unicode="" horiz-adv-x="1000"/><glyph glyph-name="e041" unicode="" horiz-adv-x="840" d="M823 215q0-2-1-7t-1-7q0 2-5 10.5T781 229q-24 8-66 8t-96-5q31-15 60.5-26.5t54.5-18q25-6.5 44-8t29 3.5q2 1 4.5 3.5l4.5 4.5q3 3 5 6-1-6-3-11t-3-9q-1-4-2-6-3-4-8.5-7.5T793 158q-15-4-41-1.5t-58 11q-32 8.5-67.5 22.5T557 224q-77-11-156-30.5T254 152Q188 35 137-16T46-47L26-37q-6 4-7.5 11T18-12q5 23 34.5 56t88.5 68q3 2 10 6t15 8l20 10q-7-8-14-14-6-5-12-10.5t-8-7.5q-23-19-43-39.5T74.5 25Q60 6 52.5-10T46-35v-2q40 6 98 85t135 228q18 36 37.5 75.5T353 432l9 22q-22 83-32.5 148t1.5 109q3 11 14.5 17.5T371 735h14q9 0 16-5t12-12.5q5-7.5 7.5-15T423 690q2-17-2-36-2-10-5-20 0 11-1 26.5t-8 30.5q-16 36-29 39-8-5-11-21-2-13-3-27t-1-22q0-29 6-66.5t17-77.5q2 6 3.5 12t3.5 12q2 4 5.5 18.5T406 589q4 18 10 40-1-29-3-55-2-23-4.5-45.5T404 495q-1-9-5-20 19-53 48-98t65-78q14-14 31.5-24.5T578 254q37 5 70 7.5t62 2.5q38-1 64.5-6.5T812 241q9-9 11-26zm-561-44q63 26 129.5 44T524 245q-19 12-34 25-36 31-63 67.5T380 414q-13-34-29-71t-40-84q-13-24-25.5-46T262 171z"/><glyph glyph-name="e042" unicode="" horiz-adv-x="840" d="M754 571V72q0-35-23.5-59T674-11H228q-33 0-56 24t-23 59v82H0v276h149v256q0 34 23 58t56 24h324l202-197zM173 279q16 13 16 47 0 30-16 45-17 14-44 14H49V199h38v67h39q31 0 47 13zm517 264H529v159H228q-16 0-16-16V430h362V154H212V72q0-17 16-17h446q16 0 16 17v471zM298 199q44 0 63 34 15 27 15 63 0 16-4 31-3 17-13 30-12 18-32 24-9 4-29 4h-80V199h80zm143 110v43h95v33H403V199h38v78h83v32h-83zm-149 44q26 0 35-16 9-15 9-43 0-21-6-36-11-27-38-27h-36v122h36zm-169 0q13 0 20-7 8-6 8-20t-8-22q-8-6-20-6H87v55h36z"/><glyph glyph-name="e043" unicode="" horiz-adv-x="840" d="M384 428q17-34 40-64.5t53-56.5q6-5 13-10.5t15-10.5q-55-11-110.5-25.5T285 224q10 17 20 35.5t21 38.5q20 39 33.5 70t24.5 60zm412 317V-11H40v756h756zm-42-496q1 2 1.5 6t.5 6q-1 6-2.5 11.5T747 283q-10 9-32 13.5t-54 5.5q-50 0-111-9-14 8-28.5 17.5T495 331q-30 29-54.5 66.5T400 479q2 5 2.5 8.5t2.5 8.5q2 10 3 28.5t3 37.5q2 22 3 46l-8-34q-3-14-6.5-25.5T395 533q-1-8-6-19-9 33-14 64.5t-5 55.5q0 8 .5 19.5T373 676q3 13 9 18 11-3 25-33 6-13 6.5-26t.5-22q2 8 4 17 3 15 3 30-1 4-3 10.5t-6 12.5q-4 6-10 10.5t-14 4.5h-11q-12 0-22-5.5T343 677q-10-36-1-91t27-125l-7-18q-14-34-31-67.5T299 312Q171 60 104 49l-1 2q0 8 6.5 21t18.5 29q12 16 28.5 33.5T193 168q2 2 6.5 6t9.5 9l12 12q-8-5-16-9-7-4-13.5-7t-8.5-5q-49-29-73.5-56.5T80 70q-1-5 .5-11.5T87 49l16-8q34-17 76.5 26T278 208q57 18 123.5 34.5T533 268q28-16 58-28t57-19q27-7 48.5-9t34.5 1q9 2 17 11 3 5 4 12l2 10q-2-2-4-5-4-5-7-7-17-8-61.5 3.5T585 275q45 5 80.5 4.5T721 273q25-8 29.5-15.5t3.5-8.5z"/><glyph glyph-name="e044" unicode="" horiz-adv-x="840" d="M753 572V73q0-34-23.5-58T673-9H228q-33 0-56.5 24T148 73v83H0v275h148v256q0 35 23.5 59t56.5 24h323l202-198zM224 200v33h-97l97 122v31H82v-33h93L80 233v-33h144zm465 344H528v160H228q-7 0-11.5-5t-4.5-12V431h361V156H212V73q0-7 4.5-12t11.5-5h445q7 0 11.5 5t4.5 12v471zM300 200v186h-39V200h39zm89 0v67h39q30 0 47 14 16 14 16 46 0 30-17 45-15 14-44 14h-80V200h39zm56 106q-7-7-21-7h-35v55h35q13 0 21-6 7-6 7-21t-7-21z"/><glyph glyph-name="e045" unicode="" horiz-adv-x="840" d="M586 235q-4 2-12 4-5 1-14 1h-33v-58h33q4 0 7 .5t7 1.5q4 0 12 4 5 3 8 8 3 6 3 15t-3 15q-3 5-8 9zm48-46q-2-10-11-20-10-10-21-14-13-5-31-5h-44V81h-42v192h86q19 0 31-6 10-4 21-13 8-10 11-20 2-5 3-11t1-12q0-6-1-11.5t-3-10.5zM467 355h-95v146h-25v37h63v34h-63v37h63v33h-63v36h63v35h-63v36h87v-35h62v-37h-62v-34h62v-36h-62v-34h62v-36h-62v-34h33V355zM428 81h-42v192h42V81zm-87 0H180v33l102 123h-94v36h150v-34L236 117h105V81zM39 749V-11h761v760H39zm357-372h47v60h-47v-60z"/><glyph glyph-name="e046" unicode="" horiz-adv-x="840" d="M754 570V70q0-34-23-58t-56-24H229q-33 0-56.5 24T149 70v83H1v276h148v256q0 34 23.5 58t56.5 24h323l202-197zM167 232q15 25 15 63 0 8-1 15.5t-3 15.5q-3 14-13 30-12 16-32 24-6 2-13 3t-16 1H24V197h80q42 0 63 35zm524 309H530v160H229q-16 0-16-16V429h362V153H213V70q0-16 16-16h446q16 0 16 16v471zM197 291q0-50 29-77 22-22 61-22 37 0 61 22 28 28 28 77t-28 77q-23 21-61 21-40 0-61-21-29-27-29-77zm247-50q-13 16-13 47t12 49q12 17 33 17 20 0 31-12 6-8 9-21h39q0 18-12 35-22 31-69 31-34 0-57-23-26-28-26-75 0-45 23-71t63-26q33 0 52 19 22 20 26 50h-39q-2-8-4.5-13l-4.5-9q-10-13-31-13-20 0-32 15zM97 351q27 0 36-15t9-44q0-20-6-35-11-28-39-28H62v122h35zm190-126q-23 0-37 17t-14 49q0 31 14 48 13 17 37 17 23 0 37-17 13-16 13-48 0-33-13-49-15-17-37-17z"/><glyph glyph-name="e047" unicode="" horiz-adv-x="840" d="M753 571V72q0-35-23-59t-56-24H228q-33 0-56.5 24T148 72v82H0v276h148v256q0 34 23.5 58t56.5 24h323l202-197zM207 199l-61 96 57 90h-45l-34-61-33 61H44l57-91-60-95h46l37 63 35-63h48zm483 344H529v160H228q-7 0-11.5-5t-4.5-12V430h362V154H212V72q0-17 16-17h446q6 0 11 4.5t5 12.5v471zM271 232v153h-39V199h132v33h-93zm222 33q8-6 8-15 0-15-17-21-9-3-23-3-23 0-33 11-6 7-7 19h-37q0-28 21-46 20-16 58-16t56 17q20 17 20 42 0 24-17 38-9 7-32 14l-33 7q-17 4-25 8-9 6-9 15 0 11 9 17t25 6q15 0 23-4 13-8 15-24h38q-2 30-22 45-11 8-23.5 12t-27.5 4q-35 0-55-17-18-17-18-42 0-27 19-40 11-8 41-14l20-5q9-2 15-4t11-4z"/><glyph glyph-name="e048" unicode="" horiz-adv-x="840" d="M754 572V72q0-34-23-58t-56-24H229q-33 0-56.5 24T149 72v83H1v276h148v256q0 34 23.5 58t56.5 24h323l202-197zM177 280q17 14 17 47 0 30-17 45-17 14-44 14H53V200h39v67h39q32 0 46 13zm514 264H530v159H229q-16 0-16-16V431h362V155H213V72q0-16 16-16h446q16 0 16 16v472zM262 200v67h39q31 0 47 13t16 47q0 30-16 45-17 14-45 14h-80V200h39zm171 153V200h39v153h56v33H377v-33h56zm-306 1q14 0 21-7 7-6 7-20 0-15-7-22-8-6-21-6H92v55h35zm191-49q-8-6-21-6h-35v55h35q14 0 21-7 7-6 7-20 0-15-7-22z"/><glyph glyph-name="e049" unicode="" horiz-adv-x="840" d="M459 750V-10L0 70v604l459 76zm-92-243l-52-4-32-197-41 190h-49l-37-181-28 176H84l46-249 49-1 36 175 42-181h51l59 272zm417 156q9 0 9-10V88q0-10-9-10H474v77h246v33H474v47h246v32H474v48h246v32H474v48h246v32H474v48h246v32H474v47h246v33H474v76h310z"/><glyph glyph-name="e04a" unicode="" horiz-adv-x="840" d="M456 743V-10L1 69v598l455 76zM329 240l-68 140 63 133-53-3-38-97-37 88h-52l55-126-55-124 47-4 37 91 40-98h61zm463-130q1-8-2-13-2-5-7.5-8.5T766 85H472v49h112v78H472v24h112v77H472v24h112v78H472v23h112v78H472v24h112v77H472v41h295q7 1 12-3 5-3 9-9.5t4-19.5V110zm-53 98H610v-78h129v78zm0 103H610v-78h129v78zm0 102H610v-77h129v77zm0 103H610v-78h129v78zm0 103H610v-78h129v78z"/><glyph glyph-name="e04b" unicode="" horiz-adv-x="840" d="M739 159q1-6-1-10-4-9-20-9H476v44h178v33H476v35h178v34H476v36q16-6 34-6 41 0 69.5 28.5T608 414h-98v99q-9 0-17.5-2t-16.5-4v51h243q6 0 10-3 4-2 7-7t3-14V159zM623 432q0 41-28.5 69.5T525 530v-98h98zm-414 22q22 4 33-2t16-14q5-10 6-24-1-18-9-26.5T236 376q-12-4-27-2v80zm253 298V-10L2 70v605l460 77zM208 332q29-3 53 5 10 3 19.5 9.5t17 17q7.5 10.5 12 25T314 424q0 20-7 37-6 14-19 25.5T251 498h-83V247h40v85zm268 281h294q7 0 11.5-3t6.5-7q3-4 4-9V247q0-8-1.5-11.5T787 230q-2-2-4-2h-19v346H476v39z"/><glyph glyph-name="e04c" unicode="" horiz-adv-x="1000"/><glyph glyph-name="e04d" unicode="" horiz-adv-x="1000"/><glyph glyph-name="e04e" unicode="" horiz-adv-x="1000"/><glyph glyph-name="e04f" unicode="" horiz-adv-x="826" d="M490 218v82l296-2 1 94-297 2v-47 127L281 346l209-128zm83-35h68V84q0-35-24.5-59.5T557 0H84Q49 0 24.5 24.5T0 84v428l273 288h284q35 0 59.5-24.5T641 716V502h-68v214q0 7-4.5 12t-11.5 5H277l-5-148q-1-24-13-42-11-16-34-29t-66-14l-92-2V84q0-7 5-12t12-5h473q7 0 11.5 5t4.5 12v99z"/><glyph glyph-name="e050" unicode="" horiz-adv-x="826" d="M578 220v82l-297-2v94l296 2 1-47v127l209-128-209-128zm-5-37h68V84q0-35-24.5-59.5T557 0H84Q49 0 24.5 24.5T0 84v428l273 288h284q35 0 59.5-24.5T641 716V502h-68v214q0 7-4.5 12t-11.5 5H277l-5-148q-1-24-13-42-11-16-34-29t-66-14l-92-2V84q0-7 5-12t12-5h473q7 0 11.5 5t4.5 12v99z"/><glyph glyph-name="e051" unicode="" horiz-adv-x="726" d="M577 417L380 529l-31-55 197-112 31 55zm-6-137l-30 55-191-106 30-55 191 106zM445 499q0 33-23.5 56.5T365 579q-33 0-56.5-23.5T285 499q0-33 23.5-56.5T365 419q33 0 56.5 23.5T445 499zm0-297q0 33-23.5 56.5T365 282q-33 0-56.5-23.5T285 202q0-34 23.5-57.5T365 121q33 0 56.5 23.5T445 202zm159 60q36 0 62 25.5t26 61.5q0 18-7 34t-19 28q-12 12-28 19t-34 7q-36 0-61.5-26T517 349q0-36 25.5-61.5T604 262zm0 128q17 0 29-12t12-29q0-17-12-28.5T604 309q-17 0-28.5 11.5T564 349q0 17 11.5 29t28.5 12zm-31-207h68V84q0-35-24.5-59.5T557 0H84Q49 0 24.5 24.5T0 84v428l273 288h284q35 0 59.5-24.5T641 716V502h-68v214q0 7-4.5 12t-11.5 5H277l-5-148q-1-24-13-42-11-16-34-29t-66-14l-92-2V84q0-7 5-12t12-5h473q7 0 11.5 5t4.5 12v99z"/><glyph glyph-name="e052" unicode="" horiz-adv-x="775" d="M417 399q0 1 2 6.5t5 12.5q3 7 5.5 13.5t3.5 9.5h43q25 0 43 1 13 0 17 3 2 2 4.5 8.5l5 13q2.5 6.5 4 12.5l1.5 6q0 2-6 2-2 0-4-4-4-4-27-5h-80q-3 0-4.5-.5T426 472q-2-6-7-22.5T408.5 416q-5.5-17-9.5-31.5t-4-15.5q0-4 2-5t8-3q24-10 43-18.5t32-18q13-9.5 20-22t7-30.5q0-28-15.5-45T450 210q-4 0-11.5 1t-16 4.5q-8.5 3.5-16 10.5T395 245l-3.5 7q-1.5 3-7.5 3-4 0-12-4.5t-8-13.5q0-13 16.5-29.5T432 191q22 0 41.5 7.5t34.5 20q15 12.5 24 30t9 37.5q0 22-10.5 39.5T506 354q-14 9-33.5 17.5T434 387q-17 7-17 12zm-104 89q-16 0-45-7.5t-57-28Q183 432 162.5 396T142 303q0-32 8.5-53.5T172 215q13-13 29-18.5t32-5.5q15 0 31.5 5t30 16.5q13.5 11.5 22 29T325 283q0 34-18 60t-51 26q-21 0-37-9t-21-16q-3-5-3-11 0-4 2-4 1 0 5 4 8 8 17.5 10.5T234 346q24 0 38.5-21t14.5-54q0-33-15-48.5T239 207q-21 0-39.5 22T181 307q0 49 14.5 81t33.5 50q19 18 37.5 25t25.5 7q8 0 15-2.5t12-2.5q8 0 8 7 0 5-3 11-1 2-3 3.5t-8 1.5zm363-175v63h-34v-63h-62v-33h62v-63h34v63h62v33h-62zM573 183h68V84q0-35-24.5-59.5T557 0H84Q49 0 24.5 24.5T0 84v428l273 288h284q35 0 59.5-24.5T641 716V502h-68v214q0 7-4.5 12t-11.5 5H277l-5-148q-1-24-13-42-11-16-34-29t-66-14l-92-2V84q0-7 5-12t12-5h473q7 0 11.5 5t4.5 12v99z"/><glyph glyph-name="e053" unicode="" horiz-adv-x="839" d="M341 245l109-109 181 191 52-59 116 293-296-118 57-55-113-118-106 109-155-160V87l155 158zm233-54l67 68V84q0-35-24.5-59.5T557 0H84Q49 0 24.5 24.5T0 84v428l273 288h284q35 0 59.5-24.5T641 716V545l-62-20-5 191q-1 7-5.5 12t-11.5 5H277l-5-148q-1-24-13-42-11-16-34-29t-66-14l-92-2V84q0-7 5-12t12-5h473q7 0 12 5t5 12v107z"/><glyph glyph-name="e054" unicode="" horiz-adv-x="760" d="M584 388q0 1-2 3-7 8-13.5 15T554 421q-1 1-1 4-2 129 0 259 0 8-9 15-2 1-8 1H286q-1-6-1-12v-12q-2-27-2-54t-2-53q-3-33-29-56-9-8-18.5-13t-21.5-7q-6-1-12-1.5t-12-.5h-30.5q-15.5 0-30.5 1H99V119q0-4 2-10 3-7 11-7 3-1 8-1h421q8 0 10.5 5t2.5 10v87q0 1 2 5 7 6 13.5 12.5L583 234l2 2q7-7 13.5-14t14.5-14v-3q1-45 0-90 0-27-19-49-22-23-51-26H116q-39 0-64 30-11 14-13 35-1 5-1 15v378q0 3 3 6l13.5 13.5Q61 524 67 532q12 14 25 27t25 27q13 14 25.5 27.5T168 641q9 9 17 18t17 17q21 20 39 41t38 41q2 2 4 2h252q29 0 51-20t25-46q1-3 1-10V424q0-2-2-6l-24-27q0 1-2-3zm38-75q7-7 13.5-13t14.5-13q18-17 36.5-34t37.5-34q2-2 2-4v-78q-36 35-71.5 70.5T583 278q-36-35-71.5-70.5T440 137v78q0 2 2 4 25 23 49 45t49 45l5 5q-1 0-1.5.5t-1.5.5q-25 23-50 46.5T442 408q-2 2-2 3v79q36-35 71.5-70.5T583 349q36 35 71.5 70t71.5 71v-78q0-2-2-4-25-23-49-45.5T626 317q-1-1-2-1.5t-2-2.5z"/><glyph glyph-name="e055" unicode="" horiz-adv-x="653" d="M331 247l30-84 167 84-51-69-112-74-79 106 30 101 26 35-11-99zm113 553q37 0 63-26t26-63V485l-59 48v178q0 12-8.5 21t-21.5 9H237v59h207zm30-600l59 52V119h-59v81zM17 373L0 385h126l57 82 89-32 69 53-55-118-93 47-46-70-88 17-42 9zm0-119L0 267l35-1 88-2 60 84 94-39 66 38-79-110-71 59-47-84-87 34-42 8zm516-135V89q0-37-26-63T444 0H89Q52 0 26 26T0 89v178l17-13 42-8V89q0-12 9-21t21-9h355q13 0 21.5 9t8.5 21v30h59zM59 385H0v148h59V385zm563 47l-82-75 82-74v-72L503 321 385 211v73l82 73-82 73v74l118-110 119 110v-72zM59 533H0l59 67 125 141 53 59V607q0-25-9.5-39.5T207 545q-13-9-29-12H59z"/><glyph glyph-name="e056" unicode="" horiz-adv-x="840" d="M282 181l211 311V388L291 91 169 216v80l113-115zm339 507V-10H41v698h144v24h67q0 31 23 53t56 22q33 0 56-22t23-53h67v-24h144zm-290 65q-18 0-30.5-12T288 712q0-17 12.5-29.5T331 670q18 0 31 12.5t13 29.5q0 17-13 29t-31 12zM558 52v556h-81v-80H185v80h-80V52h453z"/><glyph glyph-name="e057" unicode="" horiz-adv-x="928" d="M798-179q1-3-1.5-6t-5.5-1l-93 41q-6 4-8-3l-38-92q-2-4-5-4t-5 4L565-55v3q-2-1-3-.5t-3 .5l-77-186q-2-3-5-3t-4 3l-38 92q-3 6-9 4l-93-41q-3-2-5.5.5t-.5 5.5L397-9l9 21h-1q-5 0-8.5 4t-3.5 9v34q0 6-6 9l-32 12q-11 5-7 16l15 38q2 7-3 10l-28 29q-9 9 0 17l24 25q6 4 2 10l-14 31q-5 12 6 17l37 16q6 3 6 9v41q0 5 3.5 8.5t8.5 3.5h35q6 0 8 6l13 32q2 5 6.5 7t9.5 0l38-15q5-2 10 3l9 8 20 20q8 9 17 0l21-21 4-3q3-4 10-2l31 14q12 5 17-6l16-37q3-6 9-6h40q5 0 9-3.5t4-8.5v-35q0-7 6-8l32-13q5-2 7-6.5t0-9.5l-15-38q-2-5 2-10l29-29q9-8 0-17l-24-25q-5-4-2-10l14-31q2-5 0-10t-7-7l-37-16q-5-3-5-9V25q0-13-13-13h-1l80-191zM584 31q28 4 51.5 17.5t41 33.5q17.5 20 27.5 45.5t10 54.5q0 27-9 52t-25.5 44.5Q663 298 640.5 312T592 331q-14 3-30 3-15 0-28-3-26-5-49-18.5t-39.5-33Q429 260 419.5 235t-9.5-53q0-43 21.5-78T488 49q35-19 74-19h11.5q5.5 0 10.5 1zM353-9H110Q80-9 58.5 12.5T37 64v370l29 31v1l152 159h-1l-40-43 42 45h1l1 1 52 55h246q30 0 51.5-21.5T592 610V435l-21 21q-9 7-17 0l-20-20v174q0 6-4.5 10.5T519 625H277l-4-128q-3-21-14-38-10-14-29.5-25.5T175 423l-79 3V64q0-6 4-10.5t10-4.5h240V25q0-13 12-13l-9-21z"/><glyph glyph-name="e058" unicode="" horiz-adv-x="840" d="M524 690q30 0 51.5-21.5T597 616V64q0-31-21.5-52.5T524-10H111q-31 0-52.5 21.5T37 64v374l29 31v1l153 161-41-44 43 46 2 1 52 56h249zm14-74q0 6-4 10.5t-10 4.5H279l-4-129q-3-22-14-39-10-14-30-26t-55-10l-80 2V64q0-15 15-15h413q14 0 14 15v552z"/><glyph glyph-name="e059" unicode="" horiz-adv-x="840" d="M670 543q30 0 51.5-21.5T743 469V-82q0-30-21.5-51.5T670-155H258q-31 0-52.5 21.5T184-82v72h-72q-30 0-51.5 21.5T39 64v373l29 31v1l152 160-41-43 43 45h1l1 2 52 55h248q31 0 52.5-21.5T598 614v-71h72zM524 49q6 0 10.5 4.5T539 64v550q0 7-4.5 11t-10.5 4H280l-4-128q-3-21-14-38-10-14-29.5-26T178 426l-81 2V64q0-6 4.5-10.5T112 49h412zm160 420q0 6-4 10.5t-10 4.5h-72V64q0-31-21.5-52.5T524-10H243v-72q0-14 15-14h412q14 0 14 14v551z"/><glyph glyph-name="e05a" unicode="" horiz-adv-x="840" d="M540 359l-85 53 38-92-99-14 88-46-67-74 98 21-4-100 62 79 61-79-3 100 97-21-67 74 89 46-99 14 37 92-84-53-31 95-31-95zm31-252l30-39v-4q0-31-21.5-52.5T527-10H112q-31 0-52.5 21.5T38 64v375l29 30v1l154 161-41-43 43 45 2 2 53 55h249q31 0 52.5-21.5T601 616V474l-30 94-29-88v136q0 6-4.5 10.5T527 631H281l-4-129q-3-21-14-38-10-14-30-26t-55-10l-81 2V64q0-6 4.5-10.5T112 49h415q6 0 10.5 4.5T542 64v6l29 37z"/><glyph glyph-name="e05b" unicode="" horiz-adv-x="840" d="M606 325h108v-76H606V141h-76v108H421v76h109v109h76V325zM539 89h59V65q0-31-21.5-52.5T524-9H111Q80-9 58.5 12.5T37 65v374l239 252h248q31 0 52.5-21.5T598 617V492h-59v125q0 6-4.5 10.5T524 632H280l-4-129q-1-21-12-37-9-14-29-25.5T177 428l-81-1V65q0-6 4.5-10.5T111 50h413q6 0 10.5 4.5T539 65v24z"/><glyph glyph-name="e05c" unicode="" horiz-adv-x="840" d="M716 325v-76H423v76h293zM541 151h59V65q0-31-21.5-52.5T526-9H113Q82-9 60.5 12.5T39 65v374l238 251h249q31 0 52.5-21.5T600 617V430h-59v187q0 6-4.5 10t-10.5 4H281l-4-128q-1-21-12-37-9-14-29-25.5T178 428l-80-2V65q0-7 4.5-11t10.5-4h413q6 0 10.5 4t4.5 11v86z"/><glyph glyph-name="e05d" unicode="" horiz-adv-x="840" d="M599 307L471 184v246l128-123zm1-184V64q0-31-21.5-52.5T526-10H113q-31 0-52.5 21.5T39 64v374l238 251h249q31 0 52.5-21.5T600 616V495l-59 55v66q0 6-4.5 10t-10.5 4H281l-4-128q-1-21-12-37-9-14-29-25.5T178 427l-80-1V64q0-7 4.5-11t10.5-4h413q6 0 10.5 4t4.5 11v4l59 55zm121 184L539 138v62l112 107-112 108v61l182-169z"/><glyph glyph-name="e05e" unicode="" horiz-adv-x="840" d="M539 114q11-13 24-20t23-9q4-2 7-2t5-1V63q0-31-21.5-52.5T524-11H111q-30 0-51.5 21.5T38 63v374l238 252h248q31 0 52.5-21.5T598 615v-65q0-5-7-12.5t-16.5-16q-9.5-8.5-19.5-16T539 493v122q0 6-4.5 10.5T524 630H280l-4-129q-1-21-12-37-9-14-29-25.5T177 426l-80-1V63q0-6 4-10.5t10-4.5h413q6 0 10.5 4.5T539 63v51zm215 185h17v-15h-17v-18h-16v18h-18v15h18v18h16v-18zm32 29q1-10 1.5-19.5T786 291q-1-13-3.5-23t-4.5-15q0-2-1-2 0-1-1 0h-45q-61 2-96.5-8.5T583 215q-21-21-13-46 2-6 4-10l4-8q1-2 4-5l5-5q0-1 1-1l1-1h-7q-7 0-11 2-14 4-31.5 16.5T516 196q-5 23 1 41.5t21 33.5q16 15 40.5 26.5t53 18.5q28.5 7 59 11t58.5 4h18.5q8.5 0 16.5-1h1q1-1 1-2zm-15-29h-17v18h-16v-18h-18v-15h18v-18h16v18h17v15zm-117 38q-26-3-54-9.5T545 308q-20-10-33-20t-20.5-20q-7.5-10-11.5-18t-6-14q-2-6-3-10.5t-2-6.5v-1l-1 1q-2 3-4.5 6t-4.5 8q-4 8-6.5 15.5T452 261q8 31 26.5 52t44.5 38q48 32 121 46 46 9 83 9 10 0 17.5-.5t10.5-.5h1q1 0 1-.5t1-.5l1-1q2-2 4-5.5t3-6.5q13-23 18-49v-1h-2q-22 2-54 1.5t-74-5.5zm-177-3q-18-18-25-41l-2-8-1-1-2-7v-1q-1 4-3 14v19q0 4 1 9 3 20 12 35 5 9 12.5 18l12.5 15q13 13 30 27l4 4 6 4q10 8 25.5 22.5T567 472l1 1h1q6 2 14 3.5t16 2.5q10 1 20.5 1t17.5-2h1l-1-4q-4-8-11-21.5T602 424q-13-11-26-19.5T549 388q-18-11-36.5-22.5T477 334z"/><glyph glyph-name="e05f" unicode="" horiz-adv-x="840" d="M526 690q30 0 51.5-23.5T599 603V75q0-38-21.5-61T526-9H113Q82-9 60.5 13T39 67v370l59 63 179 189h1V522l-1-21q-3-21-14-38-10-14-30-26t-55-11l-80 2V67q0-16 15-16h413q14 0 14 16v547q0 15-14 15H395q-6 0-10.5-4t-4.5-11V320h126L350 157 195 320h126v294q0 32 21.5 54t52.5 22h131z"/><glyph glyph-name="e060" unicode="" horiz-adv-x="991" d="M192 265h261v-36H192v36zm261 58H192v35h261v-35zM99 63q0-7 4.5-11t10.5-4h180l-9-60H114q-31 0-53 22T39 63v376l30 31v1l155 162h-1l-41-43 43 45h1l1 2 53 56h252q31 0 52.5-22t21.5-53V425l-59-61v254q0 6-4.5 10.5T532 633H284l-4-129q-1-32-16.5-48T229 434q-22-7-49-6l-81 3V63zm690 209q8-8 8.5-20t-7.5-20l-42-41-122 122 42 41q8 8 20 8t20-8l81-82zm-83-80l20-20L523-31 401 91l203 203 20-21L441 91l21-21 183 183 40-40L502 29l21-20 183 183zM442 9l61-61-72-10-71-10 10 71 10 71 62-61z"/><glyph glyph-name="e061" unicode="" horiz-adv-x="1000"/><glyph glyph-name="e062" unicode="" horiz-adv-x="1000"/><glyph glyph-name="e063" unicode="" horiz-adv-x="1000"/><glyph glyph-name="e064" unicode="" horiz-adv-x="1000"/><glyph glyph-name="e065" unicode="" horiz-adv-x="1000"/><glyph glyph-name="e066" unicode="" horiz-adv-x="1000"/><glyph glyph-name="e067" unicode="" horiz-adv-x="1000"/><glyph glyph-name="e068" unicode="" horiz-adv-x="1000"/><glyph glyph-name="e069" unicode="" horiz-adv-x="1000"/><glyph glyph-name="e06a" unicode="" horiz-adv-x="980" d="M800 551v-31H662V376h-32v144H489v31h141v139h32V551h138zM308 431q16 16 19 34.5t3 30.5q0 24-7.5 53T301 603q-14 25-35.5 41.5T216 661q-18 0-35.5-8T152 631q-11-14-15.5-31.5T132 565q0-23 7-50.5t21-51.5q14-24 35.5-40.5T246 406q17 0 34 7t28 18zm72-287q0 17-6 30.5t-18 27q-12 13.5-30.5 28T281 262h-21l-11-1q-11-1-26-2.5t-31-4q-16-2.5-27-6.5-8-3-21-8.5t-25.5-16q-12.5-10.5-22-27T87 156q0-48 43-78.5T247 47q66 0 99.5 27.5T380 144zm22 514h-56q8-6 19-16.5t21-25q10-14.5 17-34.5t7-45q0-25-6.5-43.5t-17-33.5Q376 445 362 433.5T334 411q-9-9-17-19t-8-25q0-15 7.5-24t15.5-14l33-25q15-12 29-24.5t24.5-27Q429 238 435 220t6-41q0-32-15.5-62T380 63q-30-24-75-38.5T202 10q-50 0-86.5 10.5T55 49Q31 67 19 90T7 138q0 12 3.5 26T22 192.5q8 14.5 21.5 28T77 246q21 13 45 20.5t47.5 12Q193 283 214 285t36 3q-9 12-18 26t-9 34q0 12 3 19.5t6 15.5q-8-1-15-1.5t-14-.5q-36 0-64 12t-47.5 32Q72 445 62 470.5T52 522q0 31 14.5 63t43.5 56q39 31 82.5 40t80.5 9h187l-58-32z"/><glyph glyph-name="e06b" unicode="" horiz-adv-x="840" d="M419 417q18 3 33 13 20 14 31.5 34t16.5 53q1 5 1 15v42.5q0 10.5-1 16.5-12 100-70 131-19 9-42.5 9.5T346 722q-47-24-57-88-5-29-2.5-66t11.5-64q4-13 11.5-27t15.5-24q18-23 42.5-32t51.5-4zm54-375q65 6 103 33 42 33 48 64 2 9 1 20t-4 18q-5 10-14.5 16.5t-27 11q-17.5 4.5-45 6.5t-67.5 4q-53 2-92.5 4t-68.5 6l-15 1.5q-5 .5-8.5-.5t-5.5-4q-2-3-6-7-17-20-27.5-37.5T229 145q-6-23 2-41 11-24 51-41t94-22q8-1 21.5-1h28q14.5 0 27 .5T472 42h1zM225 9q-20 8-32.5 17T169 46q-13 13-15.5 33.5T172 132q10 16 21.5 29.5T227 198q11 11 18.5 20.5T253 229q0 1-13 12-12 7-21.5 16T206 272q-14 29 15 70 2 4 8 10.5t14 14.5q8 8 16.5 16t15.5 14q15 13 15 16t-6 6q-17 8-34.5 23.5T222 473q-15 23-21.5 46t-6.5 50q0 22 3.5 39.5T209 643q12 26 36 50.5t52 38.5q24 11 50.5 17.5T397 755q30 0 61.5-7.5T516 723l6-5h105q14 0 25-1.5t12-3.5q3-7 2.5-20.5T664 677l-4-2q-2-1-10-2-6 0-20-.5t-28-.5h-30q-7 0-7-2 0-1 4-9 18-25 24-59 2-13 2-34.5t-2-32.5q-10-50-49-87-22-22-48.5-34T434 397q-6-1-15-1.5t-19-1q-10-.5-19 0t-13 1.5q-13 1-21 2t-18 4l-14 3-7-7q-6-6-15-15.5T280 367q-4-7-6.5-15.5T271 337q0-5 3-12t8-10q6-4 13-6.5t17.5-4.5q10.5-2 26.5-3t40-2q45-2 73-3t46-1.5q18-.5 28.5-2T547 290q67-9 98-55 10-14 13-28t2-35q0-12-1-17.5t-3-12.5q-14-47-58-87T495-4q-22-8-44.5-12.5T402-21q-38 0-87 6.5T225 9z"/><glyph glyph-name="e06c" unicode="" horiz-adv-x="884" d="M728 381q-5-1-23-13t-42-30q-24-18-51-40t-50-42.5Q539 235 522.5 218T503 192q-1-5-1-27t.5-47.5Q503 92 504 69t2-30q4-1 21.5-1.5t37-.5H602q18 0 24-1l-2-37H251l7 33q7 1 22.5 1t33 .5q17.5.5 33 3.5T368 47q3 3 4 23t1 44.5q0 24.5-1 46.5t-2 29q-2 5-15.5 24.5t-34 46Q300 287 275 317.5T226.5 376Q203 404 183 425t-31 30H39v53h381v-4h1l-1-9v-40H305q19-28 41.5-58t44-58q21.5-28 40-52t30.5-40l154 139h-92l-13 52h335l-3-3h2l-24-35h-1l-10-14h-61q-6-2-11-2.5t-9-2.5z"/><glyph glyph-name="e06d" unicode="" horiz-adv-x="840" d="M502 295q35-68 72-134t75-135q5-10 11-21.5t2-19.5q-2-5-9-7t-16-2q-9 0-19.5.5T598-23q-23 0-42.5-2T521-22q-8 3-15 12.5t-13.5 21Q486 23 481 35t-9 19q-32 59-66 120.5T340 293q55 101 116.5 207.5T576 711q8 16 18 34.5t31 19.5q10 1 28 0t38-1q17 0 37 .5t25-6.5q4-6 1.5-14.5t-7-17q-4.5-8.5-10-16.5t-8.5-13q-57-103-114-202T502 295zm-402-82q-3-1-8 2t-7 7q-2 10 3.5 17.5T98 254q25 45 46.5 84.5T192 423q3 5 9 13.5t7 13.5q0 6-8 18.5T188 488q-11 20-21.5 37T145 560q-5 8-11 17t-3 23q1 5 4.5 6.5t8.5 2.5h118q17 0 24-13.5t15-25.5q17-30 35-60.5t33-58.5q-24-43-50.5-89.5T266 269l-8.5-17q-4.5-9-10-17.5T235 220q-7-6-16-7H100z"/><glyph glyph-name="e06e" unicode="" horiz-adv-x="840" d="M804 298V-55L398 4l-1 295 407-1zM398 655l406 60V360l-406-3v298zm-58-354V8L36 51v252l304-2zM36 606l304 43V356l-304-2v252z"/><glyph glyph-name="e06f" unicode="" horiz-adv-x="840" d="M605 166q14 0 30-5.5t29.5-18Q678 130 687 110t9-49q0-29-12.5-46t-29-25.5q-16.5-8.5-34-11T593-24q-10 0-39.5.5t-63 1.5q-33.5 1-65 1.5T380-20q-9 0-30 5.5T303 4q-26 13-54 34t-50.5 51.5Q176 120 161 162t-15 96q0 29-.5 58t-.5 58q0 27-.5 54t-.5 54v31q0 42-.5 85.5T157 682q10 29 32.5 42.5T241 738q36 0 56-16.5t30-44q10-27.5 13-62.5t3-71h273q32 0 54-30t22-81q0-25-11.5-41t-28-25q-16.5-9-35-12.5T585 351H339q-1-31-1.5-55.5T337 256q0-16 4.5-32t17-29q12.5-13 36.5-21t63-8h147z"/><glyph glyph-name="e070" unicode="" horiz-adv-x="840" d="M722 445v-20q0-77-29-156t-85-143Q552 62 469.5 22T279-18q-66 0-126.5 18T40 52q19-3 38-3 55 0 104 17.5t89 49.5q-51 1-91 31t-54 77q13-3 29-3 21 0 41 6-27 5-49.5 19T107 280q-17 20-26.5 45.5T71 380v2q32-18 70-20-31 21-50 55t-19 75q0 21 5.5 41T93 570q58-71 141-114.5T414 407q-2 9-3 18t-1 18q0 32 12.5 60.5T456 553q21 21 49.5 33t60.5 12q34 0 63-13t51-36q52 10 98 38-8-27-26-49.5T710 501q49 6 89 24-15-23-34.5-43T722 445z"/><glyph glyph-name="e071" unicode="" horiz-adv-x="840" d="M592 358H486V-21H329v379h-75v134h75v87q0 23 6.5 51t24 52q17.5 24 48.5 40t80 16l116-1V607h-84q-11 0-22.5-7T486 571v-79h120l-14-134z"/><glyph glyph-name="e072" unicode="" horiz-adv-x="840" d="M455 377v1l-1-1h1zM773-21H618v249q0 47-18 76t-60 29q-32 0-52-18t-28-39q-3-8-4-17t-1-20V-21H300q1 118 1 216v158q0 34-.5 58.5T300 444h155v-66q8 12 19 25.5t27.5 25q16.5 11.5 39.5 19t54 7.5q38 0 70.5-12.5T722 404q24-26 37.5-65t13.5-93V-21zM138 508h-2q-38 0-61.5 23T51 588q0 35 24 58t64 23q39 0 62.5-23t23.5-58q1-34-23-57t-64-23zm77-529H60v465h155V-21z"/><glyph glyph-name="e073" unicode="" horiz-adv-x="840" d="M539 430q-16 0-23 9-7 10-7 29v175h43V482q0-5 2-11 3-3 9-3 5 0 12 4t13 12v159h43V433h-43v23q-6-6-12-11t-12-8q-13-7-25-7zm-128-2q-29 0-45 16-17 15-17 42v109q0 25 17 39 18 15 47 15 26 0 44-15 17-17 17-40V485q0-27-17-42t-46-15zm-18 54q0-8 5-13t13-5q7 0 14 5 5 5 5 13v115q0 6-5 11-5 4-14 4t-13-4q-5-5-5-11V482zm-152 64l-58 172h49l31-114h3l30 114h50l-57-167V433h-48v113zm247-324q8 0 12-5 4-6 4-15v-98q0-10-4-13-3-4-10-4-6 0-9 2-5 1-9 6v119q3 4 8 6 2 2 8 2zm131-1q10 0 13-5 4-4 4-17v-19h-34v19q0 11 4 17 4 5 13 5zm38 146q28 0 53.5-11t44-29.5q18.5-18.5 29.5-44t11-53.5V118q0-29-11-54t-29.5-43.5Q736 2 710.5-9T657-20H178q-29 0-54 11T80.5 20.5Q62 39 51 64t-11 54v111q0 28 11 53.5t29.5 44Q99 345 124 356t54 11h479zm-378-49H147v-38h44V59h43v221h45v38zm126-68h-39V105q-3-4-11-10-7-4-11-4-5 0-8 3-2 4-2 10v146h-38V90q0-16 6-25 7-9 20-9 11 0 22 6t22 18V59h39v191zm138-45q0 24-10 35-9 12-27 12-10 0-18-4-8-5-16-13v83h-39V59h39v15q7-9 16-13 8-4 20-4 17 0 26 10 9 12 9 32v106zm132-6q0 28-14 41-14 15-40 15t-42-16q-16-15-16-40v-86q0-28 15-43 15-16 40-16 29 0 43 15 14 14 14 44v10h-39v-9q0-17-4-22-3-5-13-5-9 0-13 6-4 8-4 21v36h73v49z"/><glyph glyph-name="e074" unicode="" horiz-adv-x="840" d="M292 294h9.5q3.5 0 8.5-1 22-15 38.5-27.5t27-24Q386 230 391 218t5-27q0-35-29.5-59T280 108q-63 0-100.5 26T142 202q0 21 8 35t19 23.5q11 9.5 22.5 14.5t17.5 7q12 4 25.5 6.5T260 292q12 1 20.5 1.5t11.5.5zm-39 345q25 0 43.5-14.5t31-36q12.5-21.5 19-46T353 497q0-11-3-27t-17-30q-10-9-24.5-15t-29.5-6q-25 0-43.5 14T205 468q-12 21-18 44.5t-6 43.5q0 15 3.5 30t13.5 27q10 12 25 19t30 7zm359-122V393h27v124h120v27H639v120h-27V544H490v-27h122zm-190 15q0 22-6 39t-15 30q-9 13-18.5 21.5T366 637h49l50 27H303q-32 0-69.5-7T162 622q-26-21-38-49t-12-55q0-23 8.5-44.5t25-38.5q16.5-17 41-27.5T242 397q6 0 12.5.5T268 399q-3-8-5.5-14t-2.5-16q0-18 7.5-30t15.5-23q-13-1-31.5-2.5T213 308q-20-4-41-10.5T133 280q-35-20-48-46.5T72 186q0-21 10.5-41t31.5-35.5Q135 94 167 85t75-9q51 0 89.5 12.5t64.5 33q26 20.5 39.5 47T449 222q0 40-20 64t-46 44l-29 22q-7 5-13.5 12.5T334 385q0 13 7 21.5t15 16.5q12 9 24 19.5t21.5 23q9.5 12.5 15 29T422 532zm373 217V-9H37v758h758z"/><glyph glyph-name="e075" unicode="" horiz-adv-x="840" d="M796 747V-9H40v756h756zM614 607q1 1 1.5 12t-1.5 16q-1 2-9.5 2.5t-19.5.5h-27l-54 1-5 3q-20 14-44 19.5t-47 5.5q-17 1-37.5-4T331 649q-21-10-39.5-29T264 581q-6-14-9-27t-3-30q0-21 5-38.5t17-35.5q8-11 21-23t26-18q5-3 5-5t-12-12q-11-9-24-23t-17-19q-23-33-12-54 2-5 9.5-12t16.5-12q11-8 11-9t-6-8.5q-6-7.5-15-15.5-17-18-25.5-28T235 188q-16-24-14-40t12-26q15-16 43-29 32-13 69.5-18t66.5-5q20 0 37 4t34 9q46 15 80 46t45 66q2 5 2 9.5t1 13.5q0 17-2 28t-10 22q-22 34-75 42-8 1-16.5 1.5t-22 1Q472 313 450 314t-56 3q-19 0-31 1t-20 2.5q-8 1.5-13.5 3.5t-9.5 5q-3 2-6 7.5t-3 9.5q0 11 7 23 3 5 10 12l12 12 5 5 11-2q8-2 14-3t16-2q3-1 10-1h14.5q7.5 0 14.5.5t11 1.5q53 7 86 39 30 30 37 67 2 8 2 24.5t-2 26.5q-5 27-18 46-3 4-3 7 0 1 5.5 1H566q11 0 21.5.5t15.5.5q6 1 7.5 1.5t3.5 1.5zM279 198q3 12 11.5 25.5T311 252q6 7 9 8.5t18-.5q22-3 52.5-4.5T462 252q31-1 52-3t34.5-5q13.5-3 21-8.5T581 223q2-5 2.5-13.5T583 193q-6-26-38-49-27-20-79-25-5-1-15-1.5t-21-.5q-11 0-21.5.5t-16.5.5q-42 4-72.5 17T281 166q-7 12-2 32zm154 443q22-11 35.5-36.5T487 541q1-5 1-13v-32.5q0-7.5-1-11.5-4-26-12.5-41T450 417q-10-7-25-10-44-8-72 28-6 8-12 18.5t-9 20.5q-7 21-9 49.5t2 50.5q7 50 44 68 14 7 32 7t32-8z"/><glyph glyph-name="e076" unicode="" horiz-adv-x="840" d="M794 747V-9H38v756h756zm-50-228l2 3H472l11-43h74L432 365q-10 13-25 33t-33 43q-18 23-36 47.5T304 536h94v33l1 7h-1v3H86v-43h92q9-7 25.5-24.5t36-40.5q19.5-23 39.5-48t37-46.5q17-21.5 28.5-37.5t12.5-20q1-6 2-24t1-38q0-20-1-36.5t-4-19.5q-5-5-17.5-7.5t-27-3q-14.5-.5-27-.5H265l-5-30h30q20 0 41.5.5t41.5 1q20 .5 30 .5h162l2 30q-5 1-19.5 1.5t-31 .5H486q-14 0-18 1-1 6-1.5 24.5t-1 39.5q-.5 21-.5 39t1 22q2 7 15.5 21.5T514 373q19 17 41 34.5t42 32q20 14.5 34.5 24.5t18.5 11q3 1 7 1.5t9 2.5h51l8 12 20 28h-1z"/><glyph glyph-name="e077" unicode="" horiz-adv-x="840" d="M794 747V-9H38v756h756zM266 252q14 2 21.5 16.5T301 294q20 34 39.5 68.5T378 429q-11 20-24.5 43T327 517q-5 10-11 19.5t-18 9.5q-22 1-43.5.5T210 546q-3 0-6-1t-4-5q-2-11 3-17.5t8-12.5q8-14 16-26.5t16-27.5q3-5 9-14t6-14q0-3-5-9t-7-11q-19-33-35-62.5T176 283q-3-5-7-11t-2-13q1-3 5-5.5t6-1.5h88zm379 360q2 4 6.5 9.5t8 12q3.5 6.5 5 12.5t-1.5 11q-3 5-18.5 5H617q-15 0-28 .5t-21 .5q-16-1-23-14.5T531 623q-42-78-88-157t-87-154q24-43 49-88.5t49-90.5q3-5 7-13.5t8.5-17.5q4.5-9 10-16t11.5-9q11-4 25.5-2.5T548 76q14 0 29-.5t19 7.5q3 6-1.5 14t-8.5 16q-28 51-55.5 100T477 313q42 75 84 149t84 150z"/><glyph glyph-name="e078" unicode="" horiz-adv-x="840" d="M796 746V-10H40v756h756zM392 382l343 2v302l-343-50V382zm-31-280l-1 250-259 2 1-216 259-36zm0 279l-1 250-259-35 1-216 259 1zm375-31l-345 1 1-253 343-48 1 300z"/><glyph glyph-name="e079" unicode="" horiz-adv-x="840" d="M793 745V-11H37v756h756zM544 82q7 0 20.5 2t26 8.5q12.5 6.5 22 19T622 146q0 22-7 37t-17 24q-10 9-22.5 13t-22.5 4H444q-29 0-47 6t-28 15.5q-10 9.5-13 21.5t-3 24q0 11 .5 29.5T355 362h183q10 0 24 2.5t26.5 9q12.5 6.5 21 18.5t8.5 31q0 38-16 60.5T562 506H357q0 27-2 53.5t-9.5 46.5q-7.5 20-22.5 32.5T282 651q-23 0-39-9.5T219 609q-10-29-10-62v-87q0-20 .5-40.5t.5-40.5v-86q0-40 11-71.5t28-54.5q17-23 38-38.5t40.5-25.5q19.5-10 35-14t22.5-4q11 0 34.5-.5t48.5-1q25-.5 46.5-1T544 82z"/><glyph glyph-name="e07a" unicode="" horiz-adv-x="840" d="M795 744V-12H39v756h756zM587 453q13 9 24 20.5t20 24.5q-12-5-24.5-8.5T580 484q28 16 39 49-25-15-56-21-25 27-64 27-36 0-61.5-25.5T412 452q0-5 .5-10t1.5-10q-55 2-101.5 26.5T234 523q-12-20-12-44 0-23 10.5-42t28.5-31q-21 1-40 11v-1q0-32 20-56t50-30q-11-3-23-3-6 0-16 2 8-26 30.5-43t51.5-18q-23-17-50.5-27T225 231h-10.5q-5.5 0-10.5 1 29-19 63-29.5t71-10.5q60 0 106.5 22.5t78 58.5q31.5 36 48 80.5T587 442v11z"/><glyph glyph-name="e07b" unicode="" horiz-adv-x="840" d="M795-12H39v756h756V-12zM516 421h-68v44q0 12 6.5 16t12.5 4h48v73l-66 1q-27 0-44.5-9T377 527.5Q367 514 363.5 498t-3.5-29v-48h-43v-76h43V132h88v213h60l8 76z"/><glyph glyph-name="e07c" unicode="" horiz-adv-x="840" d="M441 399l1 1v-1h-1zM794-10H38v756h756V-10zM299 439h-91V164h91v275zm-45 37q24 0 38 14t13 34q0 20-13.5 34T254 572q-23 0-37-14t-14-34q0-20 13.5-34t36.5-14h1zm375-155q0 64-30 94t-75 30q-37 0-55-15.5T442 400v39h-92V164h92v153q0 7 .5 12.5T445 340q5 12 16 22.5t30 10.5q26 0 36.5-17t10.5-45V164h91v157z"/><glyph glyph-name="e07d" unicode="" horiz-adv-x="840" d="M578 293q20 0 32-12 11-13 11-33v-39h-58v-28q0-11 3-17 3-4 10-4 8 0 11 4 3 3 3 17v7h31v-8q0-23-12-35-11-12-33-12-21 0-33 13-11 13-11 34v68q0 20 13 32 12 13 33 13zm12-45q0 9-3 14-4 4-11 4t-10-4q-3-5-3-14v-15h27v15zm205 497V-11H38v756h757zM489 461q0-15 6-22 6-8 17-8 9 0 20 6 11 5 20 15v-18h34v167h-34V474q-4-6-11-9-8-4-9-4-6 0-7 3-2 2-2 9v128h-34V461zm-127 15q0-20 14-34 12-12 35-12t37 12q13 12 13 33v86q0 20-13 32-14 12-35 12-24 0-37-12-14-11-14-31v-86zM231 660l45-137v-89h39v94l44 132h-39l-23-91h-3l-25 91h-38zm485-388q0 22-8.5 42T684 349q-15 15-35 23.5t-43 8.5H227q-23 0-43-8.5T149 349q-15-15-23.5-35t-8.5-42v-88q0-23 8.5-42.5T149 107q15-15 35-23.5t43-8.5h379q23 0 43 8.5t35 23.5q15 15 23.5 34.5T716 184v88zM411 458q-6 0-10 4-4 6-4 11v91q0 5 4 9 4 3 10 3t11-3q4-4 4-9v-91q0-7-4-11-6-4-11-4zm-35-169h30V137h-30v17q-10-10-18-14-10-5-17-5-10 0-16 7-5 8-5 20v127h30V173q0-4 2-8 1-2 6-2 3 0 8 3 4 2 10 8v115zm110 2q14 0 22-10t8-28v-84q0-17-7-25t-21-8q-9 0-16 3-8 4-13 10v-12h-30v206h30v-66q4 3 7 5.5t6 4.5q7 4 14 4zm-1-40q0 7-3 12-6 4-10 4-2 0-6-2-2-1-3.5-1.5T459 261v-95q2-2 4-3l4-2q4-2 7-2 5 0 8 3 3 4 3 11v78zm-283 92h104v-30h-35V137h-34v176h-35v30z"/><glyph glyph-name="e07e" unicode="" horiz-adv-x="1000"/><glyph glyph-name="e07f" unicode="" horiz-adv-x="1000"/><glyph glyph-name="e080" unicode="" horiz-adv-x="1094" d="M719 800q67 0 125.5-19t102-51.5q43.5-32.5 69-76.5t25.5-93q0-50-25.5-94t-69-76.5Q903 357 844.5 338T719 319q-14 0-26.5 1t-25.5 3l-175-64 83 87q-15 5-26 9.5t-20 9.5q-9 5-18 11t-20 14q-3-18-7-30t-7-16q-2 17-4 22.5t1 11.5q-23 2-42 10.5T390 422q-4-1-2-12 1-5 4-11-18 3-35 11-14 7-28 18t-21 31q-5-2-5.5-7.5T304 440q2-7 5-15-20 7-37 18-14 10-26 26.5T235 512q-9-22-29-42t-39-39.5q-19-19.5-32.5-40T125 348q-24 77-14 138 4 26 16 51t35.5 44.5q23.5 19.5 61 31.5t92.5 12q27 0 49-4t39-12q12 41 40.5 76t70.5 60.5q42 25.5 94 40T719 800zM558 553q1 2 1 3t1 3q7 22 24 40 17 19 34.5 30t34.5 21q14 8 26.5 15.5T703 684q16 14 23 27t10 21l1 1q-7 2-17 2t-18-1q-16-2-28-5l-2 2 1-2q-4-14-19-28t-25-22q-2-1-5-4l-5-4q-15-12-28-25-5-6-11.5-14T568 615q-8-13-11-33-2-6-2-12.5V558l1-2q0-5 1-8v2l1 3zm22-48q4 10 16.5 30t52.5 40q44 21 105 28 36 5 67 5.5t54-1.5q-2 11-6.5 23t-9.5 21q-2 2-3 4t-3 4l-1 3h-1q-3 1-10 1h-21q-16 0-35-2t-40-6q-66-12-114-43-29-19-45-39t-22-46q-2-7 7-24 2-3 2.5-5.5t2.5-4.5q1 2 1.5 5t2.5 7zm298 52q2 15 0 34-6 1-12.5 1H845q-27 0-56-4t-56-11q-27-7-50-17.5T645 535q-29-29-20-68 5-22 20.5-34t30.5-17q3-1 5-1t4-1q0 1-1 2-3 3-5 6-5 9-8 18-7 26 13 46 34 36 143 36h1l42-1q1 3 3.5 12.5T878 557zm-36 7h16v-17h-16v-17h-18v17h-16v17h16v18h18v-18zM305 186q58 0 101.5-8t76-21q32.5-13 54.5-30t36-34q33-41 38-93H0q4 52 37 93 14 17 36 34t54.5 30q32.5 13 76 21t101.5 8z"/><glyph glyph-name="e081" unicode="" horiz-adv-x="1094" d="M719 800q67 0 125.5-19t102-51.5q43.5-32.5 69-76.5t25.5-93q0-50-25.5-94t-69-76.5Q903 357 844.5 338T719 319q-14 0-26.5 1t-25.5 3l-175-64 83 87q-15 5-26 9.5t-20 9.5q-9 5-18 11t-20 14q-3-18-7-30t-7-16q-2 17-4 22.5t1 11.5q-23 2-42 10.5T390 422q-4-1-2-12 1-5 4-11-18 3-35 11-14 7-28 18t-21 31q-5-2-5.5-7.5T304 440q2-7 5-15-20 7-37 18-14 10-26 26.5T235 512q-9-22-29-42t-39-39.5q-19-19.5-32.5-40T125 348q-24 77-14 138 4 26 16 51t35.5 44.5q23.5 19.5 61 31.5t92.5 12q27 0 49-4t39-12q12 41 40.5 76t70.5 60.5q42 25.5 94 40T719 800zm88-266l112 81-138-1-42 132-42-132-139 1 113-81-44-131 112 82 111-82-43 131zM305 186q58 0 101.5-8t76-21q32.5-13 54.5-30t36-34q33-41 38-93H0q4 52 37 93 14 17 36 34t54.5 30q32.5 13 76 21t101.5 8z"/><glyph glyph-name="e082" unicode="" horiz-adv-x="1094" d="M719 800q67 0 125.5-19t102-51.5q43.5-32.5 69-76.5t25.5-93q0-50-25.5-94t-69-76.5Q903 357 844.5 338T719 319q-14 0-26.5 1t-25.5 3l-175-64 83 87q-15 5-26 9.5t-20 9.5q-9 5-18 11t-20 14q-3-18-7-30t-7-16q-2 17-4 22.5t1 11.5q-23 2-42 10.5T390 422q-4-1-2-12 1-5 4-11-18 3-35 11-14 7-28 18t-21 31q-5-2-5.5-7.5T304 440q2-7 5-15-20 7-37 18-14 10-26 26.5T235 512q-9-22-29-42t-39-39.5q-19-19.5-32.5-40T125 348q-24 77-14 138 4 26 16 51t35.5 44.5q23.5 19.5 61 31.5t92.5 12q27 0 49-4t39-12q12 41 40.5 76t70.5 60.5q42 25.5 94 40T719 800zm183-291H550v-42h352v42zm0 88H550v-42h352v42zm0 88H550v-42h352v42zM305 186q58 0 101.5-8t76-21q32.5-13 54.5-30t36-34q33-41 38-93H0q4 52 37 93 14 17 36 34t54.5 30q32.5 13 76 21t101.5 8z"/><glyph glyph-name="e083" unicode="" horiz-adv-x="1000"/><glyph glyph-name="e084" unicode="" horiz-adv-x="1000"/><glyph glyph-name="e085" unicode="" horiz-adv-x="955" d="M742 456q0 29-19.5 48.5T674 524q-29 0-48.5-19.5T606 456q0-28 19.5-48t48.5-20q29 0 48.5 20t19.5 48zm-200 0q0 29-19.5 48.5T474 524q-29 0-48.5-19.5T406 456q0-28 19.5-48t48.5-20q29 0 48.5 20t19.5 48zm-203 0q0 29-19.5 48.5T271 524q-29 0-48.5-19.5T203 456q0-28 19.5-48t48.5-20q29 0 48.5 20t19.5 48zm116 344q94 0 177-26.5t144.5-73Q838 654 874 592t36-132q0-70-36-132t-97.5-108Q715 174 632 147.5T455 121q-19 0-37.5 1.5T380 126L232 0l45 148q-61 19-112 50.5t-87.5 72Q41 311 20.5 359T0 460q0 70 36 132t97.5 108.5Q195 747 278 773.5T455 800z"/><glyph glyph-name="e086" unicode="" horiz-adv-x="1217" d="M466 532q5-9 9.5-20.5T482 491v-2h-2q-38 4-108-3-23-3-46.5-8.5T279 461q-34-17-45-34t-15-27q-2-5-2.5-8.5T215 386v-1q-1 0-1 1-2 2-4 5t-4 7q-2 6-4.5 12.5T200 421q7 27 22.5 44.5T261 498q42 27 102 39 20 4 38 5.5t32 1.5h15q7 0 10-1h2l1-1 2.5-5 2.5-5zm-107 74v-2q-3-7-9-19t-22-26q-12-11-25-19t-26.5-16q-13.5-8-27.5-17.5T222 483q-9-10-13.5-19t-6.5-15l-1.5-4.5-1.5-4.5q-2-4-2-7l-1-1-1 1q0 1-.5 4l-1.5 9v2q-2 11 1 22 2 16 10 30 4 8 9.5 14.5T225 528q7 7 14 13t15 13q3 2 9.5 7t13 11.5q6.5 6.5 12.5 14t8 14.5l1 1h1q5 2 12 3l14 2q8 1 17 1t16-2h1zm125-128q2-17 0-31-2-11-3.5-19.5T477 414l-1-1h-39q-52 2-82-7t-44-23q-8-8-11-18t0-21q2-5 3.5-9t3.5-6q1-2 4-5 0-1 2-3 1-1 2-1l1-1q0-1-1-1h-4q-2 0-10 2-11 3-26 13.5T255 367q-5 20 0 35t18 28q13 13 34 22.5t45.5 15.5q24.5 6 50 9.5T452 481h15.5q7.5 0 14.5-1h1q0-1 .5-1t.5-1zm-13-24h-15v15h-13v-15h-15v-13h15v-15h13v15h15v13zm-68 80h8v-8h-8v-9h-8v9h-9v8h9v8h8v-8zm75-290q18-62 69-111H93q-20 0-36.5 7T27 159.5Q14 172 7 189t-7 36v482q0 39 27 66t66 27h778q19 0 36-7t29.5-20q12.5-13 20-30t7.5-36V565q-25 5-51 7.5t-53 2.5h-7v114H111V244h367zM59 450q8 0 13.5 5.5T78 469q0 8-5.5 13T59 487q-8 0-13.5-5T40 469q0-8 5.5-13.5T59 450zm1100-148q0-36-14-68.5t-39.5-59.5q-25.5-27-60-48T969 92l29-92-105 77q-21-3-43-3-90 0-163 34t-112 89q-17 23-26 49.5t-9 55.5q0 43 21 81.5t57.5 68.5q36.5 30 86 50T811 527q10 1 19 1.5t20 .5q64 0 120.5-18t98.5-48.5q42-30.5 66-72t24-88.5zm-456-20q14 0 25 10.5t11 25.5q0 15-11 25.5T703 354q-15 0-26-10.5T666 318q0-15 11-25.5t26-10.5zm144 0q15 0 25.5 10.5T883 318q0 15-10.5 25.5T847 354q-15 0-25.5-10.5T811 318q0-15 10.5-25.5T847 282zm145 0q14 0 25 10.5t11 25.5q0 15-11 25.5T992 354q-15 0-26-10.5T955 318q0-15 11-25.5t26-10.5z"/><glyph glyph-name="e087" unicode="" horiz-adv-x="1158" d="M1106 262q0-38-15-72.5t-42-63.5q-27-29-64.5-51.5T902 38l32-98-112 82q-11-1-23-2t-24-1q-96 0-173.5 36.5T482 150q-18 26-28 54t-10 58q0 46 22.5 87.5t61.5 74q39 32.5 92 53T734 503q10 2 20 2h21q69 0 129-19t105-52q45-33 71-77t26-95zM871 383l-103-95-103 95v-64l71-63-71-64v-64l103 96 103-96v63l-72 65 72 65v62zM682 529q-61-6-114-26.5t-92-53q-39-32.5-61-74T393 288q0-30 10-58t27-54q-10-1-20-1.5t-21-.5q-23 0-47 3L230 95l32 98q-45 13-82.5 35.5t-64.5 52q-27 29.5-42 64T58 417q0 50 26 94.5t71 77.5q45 33 105 52t129 19q97 0 174-36t119-95zM297 342h-48v-45h48v45zm57 124q3 9 3 22 0 16-6 31-5 12-17 22t-25 14q-15 5-31 5-17 0-36-7-14-7-27-20-6-5-10-14t-7-17q-3-8-4.5-15t-1.5-27h41q0 20 2.5 29t7.5 17q6 7 14 13.5t19 6.5q3 0 5.5-.5t5.5-1.5q4-1 12-7 2-2 4.5-5t4.5-7q4-7 4-19 0-9-3-15-2-8-6-12-3-4-9-10-8-6-11-10-7-6-13-13-2-3-4.5-7t-4.5-8q-3-10-5-22-1-5-1.5-9t-.5-23h39v14.5q0 4.5.5 6.5t1 3l1.5 3q1 5 2.5 11t3.5 9q2 4 5 7l6 6q2 2 5.5 5t6.5 6q3 2 6 5t6 5q5 4 10 12 2 3 3.5 7t3.5 9z"/><glyph glyph-name="e088" unicode="" horiz-adv-x="840" d="M555 572q0-29-10.5-53.5t-29-43Q497 457 472 446.5T419 436q-28 0-53 10.5t-43.5 29q-18.5 18.5-29 43T283 572q0 28 10.5 52.5t29 43q18.5 18.5 43.5 29t53 10.5q28 0 53-10.5t43.5-29q18.5-18.5 29-43T555 572zM488-8q8 0 21.5 17.5t28 46Q552 84 566 120.5t24.5 74.5q10.5 38 15 74.5t.5 65q-4 28.5-18.5 46T544 398q-63 0-126-2t-126-2q-29 0-43.5-17.5T230 331q-4-28 .5-64t15-74q10.5-38 24.5-74t28.5-64q14.5-28 28-45.5T348-8h140zM192 410q35 0 62.5 19.5T293 481q-17 18-26.5 41t-9.5 50q0 14 3 28-14 11-31 18t-37 7q-22 0-41.5-8.5t-34-23Q102 579 93.5 559T85 517q0-22 8.5-41.5t23-34q14.5-14.5 34-23T192 410zm33-31q-34-1-67.5-1.5T92 377q-30 0-41-23.5t-9-59Q44 259 55.5 218T82 141.5q15-35.5 30-59T136 59h111q6 0 17 14-17 37-32.5 82.5t-23.5 89q-8 43.5-5 80t22 54.5zm419 31q-35 0-62.5 19.5T543 481q17 18 26.5 41t9.5 50q0 14-3 28 14 11 31 18t37 7q22 0 41.5-8.5t34-23q14.5-14.5 23-34.5t8.5-42q0-22-8.5-41.5t-23-34q-14.5-14.5-34-23T644 410zm-33-31q34-1 67-1.5t66-.5q30 0 41-23.5t9-59q-2-35.5-13.5-76.5T754 141.5q-15-35.5-30-59T700 59H589q-6 0-17 14 17 37 32.5 82.5t23 89q7.5 43.5 5 80T611 379z"/><glyph glyph-name="e089" unicode="" horiz-adv-x="1000" d="M683 491H158v-50h525v50zm0-116H158v-49h525v49zm0-115H158v-50h525v50zm123 91q0-45-17.5-85.5t-48.5-75Q709 156 666 129t-95-43l38-125L484 67q-16-2-31.5-3T420 63q-80 0-150 22.5T147.5 147q-52.5 39-83 91.5T34 351q0 60 30.5 112.5t83 91.5Q200 594 270 616.5T420 639q80 0 150.5-22.5t123-61.5q52.5-39 82.5-91.5T806 351z"/><glyph glyph-name="e08a" unicode="" horiz-adv-x="919" d="M919 245q0-33-13-63.5t-36.5-56Q846 100 814 79.5T743 47l-6-93-59 80q-12-2-23.5-3T631 30q-60 0-112.5 17T427 93q-39 29-61.5 68.5T343 245q0 45 22.5 84t61.5 68q39 29 91.5 46T631 460q60 0 112.5-17t91.5-46q39-29 61.5-68t22.5-84zM546 491q-76-21-125.5-52t-77-66.5Q316 337 307 299t-5.5-73q3.5-35 17-65.5T350 109q-8-1-19.5-1.5T311 107q-17 0-32 1.5t-30 3.5l-67-64v80q-40 14-73.5 35.5T51 212q-24 27-37.5 59.5T0 339q0 48 24.5 90T91 502.5q42 31.5 98.5 50T311 571q69 0 131-21t104-59z"/><glyph glyph-name="e08b" unicode="" horiz-adv-x="1250" d="M817 656q77 0 145-22t118.5-59.5q50.5-37.5 80-88.5t29.5-108q0-44-17-83.5t-47-72.5q-30-33-71.5-59T963 121L955 0l-77 103q-15-2-30-3t-31-1q-77 0-145 22t-118.5 60q-50.5 38-80 88.5T444 378q0 57 29.5 108t80 88.5Q604 612 672 634t145 22zm-6-478q22 0 34 12 13 12 13 31 0 18-13 30-14 12-34 12-21 0-34-12t-13-30q0-18 13-30 13-13 34-13zm-43 376l10-255h66l10 255h-86zm-61 141q-99-28-162.5-67.5T445 542q-36-46-47.5-95t-6.5-94.5q5-45.5 22.5-85.5t40.5-67q-11-1-26-1.5t-26-.5q-41 0-80 6l-86-82v103q-52 18-95.5 46T66 334.5q-31 35.5-48.5 77T0 499q0 62 31.5 117t86 96q54.5 41 128 64.5T402 800q90 0 170-27.5T707 695zM278 423q-2 4-4 10-2 8-2 11 0 9 3 15 1 7 6 13 2 2 4.5 5t5.5 6l6.5 6.5q3.5 3.5 8.5 6.5 6 5 11.5 10t10.5 10q8 8 15 20 7 10 10 22t3 26q0 24-7 39-9 17-22 27-15 10-33 15-22 5-41 5-24 0-45-6-11-2-20.5-6.5T168 648v-71q19 16 38 23 21 8 38 8 8 0 16-3 8-4 12-7 3-3 7-11 3-6 3-13 0-9-3-16-1-6-7-13-2-4-5-7l-6-6q-4-4-7.5-7t-8.5-7q-9-8-15-15-3-4-6-7.5t-5-7.5q-2-4-3-8t-3-9q-1-5-1.5-9.5T211 451v-6.5q0-3.5 1-7.5 2-10 4-14h62zm-28-104q19 0 32 11 12 12 12 29t-13 27q-11 11-31 11t-31-11q-13-11-13-27 0-17 13-28 12-12 31-12z"/><glyph glyph-name="e08c" unicode="" horiz-adv-x="955" d="M455 800q94 0 177-26.5t144.5-73Q838 654 874 592t36-132q0-70-36-132t-97.5-108Q715 174 632 147.5T455 121q-19 0-37.5 1.5T380 126L232 0l45 148q-61 19-112 50.5t-87.5 72Q41 311 20.5 359T0 460q0 70 36 132t97.5 108.5Q195 747 278 773.5T455 800zm24-431q-4 8-5 13-2 10-2 15 0 10 3 19 2 4 3.5 8t4.5 7q2 4 5.5 7.5l7.5 7.5q4 4 8.5 8t10.5 9q8 6 14.5 12.5L542 488q6 6 11 12t9 13q5 7 8 14t5 14q2 8 3 16.5t1 17.5q0 30-10 49-10 21-28 34-19 14-42 20-24 6-52 6-32 0-57-7-27-8-51-21v-91q22 21 48 30 24 10 49 10 11 0 20-3 9-5 15-9 6-6 9-14 4-7 4-17 0-11-3-20-3-10-9-17-3-5-6.5-8.5L457 508q-5-4-9.5-8.5T437 490q-5-5-10-9t-9-9q-7-8-14-19-2-5-4-10.5t-4-11.5q-1-6-1.5-12t-.5-13v-9.5q0-4.5 1-9.5t2-9q1-4 3-9h79zm-35-132q23 0 40 15 15 13 15 35 0 21-16 36-16 14-39 14t-40-14q-16-15-16-36 0-20 16-35 15-15 40-15z"/><glyph glyph-name="e08d" unicode="" horiz-adv-x="846" d="M420 626q81 0 153-23t125-63q53-40 84-93.5T813 332q0-61-31-114.5t-84-93Q645 85 573 62T420 39q-17 0-33 1t-32 3L228-66l38 128q-53 17-96.5 44T94 168.5q-32 35.5-49.5 77T27 332q0 61 31 114.5t84 93.5q53 40 125 63t153 23z"/><glyph glyph-name="e08e" unicode="" horiz-adv-x="840" d="M246 427q15 60 42 113 12 22 27 44.5t34.5 43q19.5 20.5 43.5 37t54 25.5q-8 1-15 2t-14 1.5q-7 .5-12 .5-38 0-70.5-14T278 641q-25-25-39-58t-14-71q0-46 21-85zM521 86q-1-23-10.5-42.5T486 9.5q-15-14.5-35-23T408-22q-23 0-43 8.5t-35 23q-15 14.5-24.5 34T295 86h226zm2 84H294v-60h229v60zM407 748q48 0 90.5-18.5t74-50q31.5-31.5 50-73.5t18.5-90q0-32-12.5-61T601 403q-18-26-39-50-15-15-25.5-40.5T526 266v-7q0-21-14.5-35.5T476 209H337q-21 0-35.5 14.5T287 259v7q0 21-10.5 46.5T251 353q-22 24-39 50-15 23-27 52t-12 61q0 48 18.5 90t50 73.5q31.5 31.5 74.5 50t91 18.5z"/><glyph glyph-name="e08f" unicode="" horiz-adv-x="840" d="M800 548q-53 13-96 16t-77.5 0q-34.5-3-61-11.5T519 533q-47-26-72-67l-3-509q33 25 66 39.5t64 22q31 7.5 60 8.5t54-2q59-6 112-31v554zm-760 4q52 12 95 15t77.5-.5q34.5-3.5 61-12T320 535q47-26 72-66l4-508Q325 5 260.5 16.5T147 24Q89 20 40-1v553z"/><glyph glyph-name="e090" unicode="" horiz-adv-x="840" d="M783 421v-23H464v184h-90V398H55v98q1 36 26.5 62t61.5 26h155l-30 30q-20 20-20 47.5t20 47.5q20 20 47.5 20t47.5-20l57-57 56 57q20 20 47.5 20t47.5-20q20-20 20-47.5T571 614l-30-30h154q37 0 62.5-26t25.5-62v-75zM383 594q8 8 7 20.5T380 637l-39 39q-10 10-22.5 10.5T298 679q-8-8-7.5-20.5T301 636l39-39q10-9 22.5-10t20.5 7zm155 42q10 10 10.5 22.5T541 679q-8 8-20.5 7.5T499 676l-40-39q-9-10-9.5-22.5T457 594q8-8 20.5-7t21.5 10l39 39zM464-11v320h277V77q0-36-25.5-62T653-11H464zm-90 0v320H98V77q0-36 25.5-62T185-11h189z"/><glyph glyph-name="e091" unicode="" horiz-adv-x="840" d="M592 685q43 0 81.5-16.5T741 623q29-29 45.5-67.5T803 474q0-51-15.5-92T746 305.5Q720 270 687 238t-69-64q-47-42-93.5-87T438-18l-18-27-18 26q-42 60-88.5 105T223 169q-38 33-71.5 65T92 301.5Q66 337 51 379t-15 95q0 43 16.5 81.5T98 623q29 29 67.5 45.5T248 685q52 0 97-23.5t75-64.5q29 41 74.5 64.5T592 685zm101-209h-96v95h-83v-95h-95v-83h95v-95h83v95h96v83z"/><glyph glyph-name="e092" unicode="" horiz-adv-x="840" d="M590 682q43 0 81.5-16.5t67-45q28.5-28.5 45-67T800 472q0-50-15.5-91t-41-76Q718 270 685 238.5T616 176q-47-42-93-86.5T438-15l-18-27-18 26q-41 59-87.5 103.5T225 170q-37 33-70.5 64.5t-59 66.5Q70 336 55 377.5T40 472q0 43 16.5 81.5t45 67q28.5 28.5 66.5 45t82 16.5q51 0 96-23.5t74-64.5q29 41 74 64.5t96 23.5z"/><glyph glyph-name="e093" unicode="" horiz-adv-x="1050" d="M696 564L537 331l-84 87v-81l91-93 152 222v98zm-110 96q43 0 81-16.5t66.5-45q28.5-28.5 45-66.5t16.5-81q0-50-15.5-90.5t-41-75.5Q713 250 680 219t-68-62q-46-42-92-86.5T435-34l-18-26-18 26q-41 59-87 103t-89 82q-37 32-70.5 63.5T94 281q-25 35-40 76.5T39 451q0 43 16.5 81t44.5 66.5q28 28.5 66 45t82 16.5q51 0 95.5-23t73.5-64q29 41 73.5 64t95.5 23z"/><glyph glyph-name="e094" unicode="" horiz-adv-x="1050" d="M677 562l-106-98-106 98v-83l72-67-72-66v-83l106 98 106-98v83l-72 66 72 67v83zm-92 98q43 0 81-16.5t66.5-45q28.5-28.5 45-66.5t16.5-81q0-50-15.5-90.5t-41-75.5q-25.5-35-58-66T612 157q-47-42-93-86.5T434-34l-17-26-19 26q-40 59-86.5 103T222 151q-37 32-70.5 63.5T93 281q-25 35-40 76.5T38 451q0 43 16.5 81t45 66.5q28.5 28.5 66.5 45t81 16.5q51 0 95.5-23t73.5-64q29 41 73.5 64t95.5 23z"/><glyph glyph-name="e095" unicode="" horiz-adv-x="840" d="M562 276L652 3 420 173 188 3l90 273L44 444l288-1 88 275 87-275 289 1-234-168z"/><glyph glyph-name="e096" unicode="" horiz-adv-x="777" d="M723 212q-14-26-36-44t-48-26q-26-8-54-5.5T531 153q-4 2-6.5 4t-5.5 4q0-4 2-14 1-30-9.5-56t-29-46q-18.5-20-44-32T383 0q-29-1-55.5 9t-46 29Q262 57 250 82.5T237 137q-1 5 1 15l-12-9q-25-16-53-20t-54.5 2Q92 131 69 147t-39 41q-15 25-19.5 53t2 54.5Q19 322 35 345.5T76 384q3 2 6 3t7 3q-4 2-7 3t-7 3q-26 14-43.5 36T6 480q-8 26-5.5 54T17 588q14 26 36 44t48 26q26 8 54 5.5t54-16.5q8-6 12-8-1 4-1.5 7t-.5 7q-1 30 9 56t29 46q19 20 44.5 32t54.5 13q30 1 56-9t46-29q20-19 32-44.5t13-54.5q0-10-1-15 3 2 5.5 4.5t6.5 4.5q25 16 52.5 20t54-2q26.5-6 50-22t38.5-41q16-25 20-53t-2-54.5q-6-26.5-22-50T664 416q-3-2-6.5-3.5T651 409q6-2 13-5 26-14 44-36t26-48q8-26 5.5-54T723 212zM399 401l66 21q6-8 15.5-11t19.5 0q12 4 18 15t1 24q-4 12-15 17.5t-23 1.5q-10-3-15.5-11t-5.5-18l-67-22 41 57q22-7 35 11 8 11 6 23t-13 20q-11 8-23 6t-20-13q-6-8-5.5-18t5.5-18l-41-57v70q22 7 22 29 0 13-9 22t-22 9q-13 0-22-9t-9-22q0-22 22-29v-70l-41 57q5 8 5.5 18t-5.5 18q-8 11-20 13t-23-6q-11-8-13-20t6-23q13-18 35-11l41-57-67 22q0 10-5.5 18T257 469q-12 4-23-1.5T219 450q-5-13 1-24t18-15q10-3 19.5 0t15.5 11l66-21-66-22q-6 8-15.5 11.5T238 390q-12-4-18-15t-1-23q4-12 15-18t23-2q10 3 15.5 11t5.5 19l67 21-41-57q-22 8-35-10-8-11-6-23t13-20q11-8 23-6t20 13q6 8 5.5 18t-5.5 18l41 56v-70q-22-7-22-29 0-13 9-21.5t22-8.5q13 0 22 8.5t9 21.5q0 22-22 29v70l41-56q-5-8-5.5-18t5.5-19q8-10 20-12t23 6q11 8 13 20t-6 22q-13 19-35 11l-41 57 67-21q0-11 5.5-19t15.5-11q12-4 23 2t15 18q5 12-1 23t-18 15q-10 4-19.5.5T465 379l-66 22z"/><glyph glyph-name="e097" unicode="" horiz-adv-x="803" d="M641 792q35-55 62-101 12-20 23-39t19.5-35.5q8.5-16.5 14-28.5t5.5-17q0-5-16-32t-42-67.5Q681 431 647.5 381T580 279Q499 158 396 7l-1-1-2-2-2-2h-1q-1 0-1-1-2-1-6-1t-6 1l-1 1h-1l-2 2-2 2-1 1Q266 161 185 283q-35 52-68 102.5t-59 91q-26 40.5-42 67T0 574q0 3 5.5 14.5t14 27.5Q28 632 39 651t23 39q27 46 62 102h1v1q5 7 13 7h490q4 0 8.5-3.5t4.5-4.5zm-463-23l77-125 87 125H178zM63 604h152l-75 120-77-120zm362 165l77-125 87 125H425zM305 604h152l-75 120-77-120zm249 0h152l-75 120-77-120zM339 121l-25 99-85 331H64l275-430zm147 430H280l103-435 5 22 98 413zm222 0H538L427 120l281 431z"/><glyph glyph-name="e098" unicode="" horiz-adv-x="840" d="M131-10q-26 5-46 22-17 14-31 40.5T40 124q0 45 20 71.5t47 40.5q27 14 55 17.5t45 2.5q8 36 27 65 17 24 47 44.5t80 20.5q50 0 82-19.5t52-42.5q23-27 36-62 47-2 84-18 16-7 31-17t27-25q12-15 19-35t7-47q0-54-19.5-81T637 1q-27-13-61-11H131zm410 289q-11 30-31 56-17 22-46 43t-72 29q16 45 54.5 73t88.5 28q31 0 59-12t49-32.5q21-20.5 33-48.5t12-59q0-32-11.5-59T645 250q-19 9-37.5 15t-33.5 9q-18 4-33 5zm61 224q-9 6-6.5 22.5t13 32q10.5 15.5 26 25t31.5.5q16-9 15-26.5T671 522q-9-17-22-28t-20-6q-10 5-13 7t-14 8zm65-53q-6 10 5 23t28 21q17 8 35 8.5t27-15.5q9-16-.5-30.5T736 432q-16-10-32.5-13.5T683 423q-6 10-8 13t-8 14zm30-78q0 11 15.5 16.5T747 393q19-1 34.5-10t15.5-27q0-18-16-26t-34.5-9q-18.5-1-34.5 4.5T696 340q0 11 .5 15t.5 17zm-14-83q5 9 21.5 6t32.5-13.5q16-10.5 25-26t0-30.5q-9-16-26.5-15t-34 10q-16.5 9-27.5 21.5t-7 19.5l16 28zM387 422q-5-9-21.5-6T333 429.5q-16 10.5-25 26t0 31.5q9 16 26.5 14.5t34-10.5q16.5-9 27.5-21.5t7-19.5q-6-10-8-13.5t-8-14.5zm53 65q-9-5-22 6t-21 28q-8 17-8.5 35t15.5 27q16 9 30.5-1t24.5-26q10-16 13-32.5t-4-20.5q-11-5-14-7.5t-14-8.5zm79 30q-11 0-16.5 16t-4.5 34.5q1 18.5 10 34.5t27 16q18 0 26-16t8.5-34.5q.5-18.5-5-34.5T551 517h-32z"/><glyph glyph-name="e099" unicode="" horiz-adv-x="840" d="M512 548q-12 7-8 29t18 43q14 21 34.5 33.5t41.5.5q21-12 19.5-35.5t-13.5-46Q592 550 575.5 535t-26.5-9q-7 4-11 6.5t-7.5 4.5-7.5 4.5q-4 2.5-11 6.5zm87-71q-7 12 7.5 29.5t37 28.5q22.5 11 47 11.5T727 526q12-21-1-40.5t-35-33q-22-13.5-43.5-18T620 440q-8 13-10.5 18T599 477zm40-106q0 15 21 22.5t46.5 6Q732 398 753 386t21-36q0-24-21-34.5T706.5 304q-25.5-1-46.5 6.5T639 329v42zm-18-110q7 12 29 8t43-18q21-14 33.5-34.5t.5-41.5q-12-21-35.5-19.5t-46 13.5Q623 181 608 197.5t-9 26.5q8 13 11 18t11 19zm-71-87q12 7 29.5-7.5t28.5-37q11-22.5 11.5-47T599 46q-21-12-40.5 1t-33 35q-13.5 22-18 43.5T513 153q13 7 18 10t19 11zm-106-40q15 0 22.5-21t6-46.5Q471 41 459 20T423-1q-24 0-34.5 21T377 66.5q-1 25.5 6.5 46.5t18.5 21h42zm-110 18q12-7 8-29t-18-43q-14-21-34.5-33.5T248 46q-21 12-19.5 35.5t13.5 46q12 22.5 28.5 37.5t26.5 9q13-8 18-11t19-11zm-87 72q7-13-7.5-30t-37-28.5q-22.5-11.5-47-12T119 174q-12 21 1 40.5t35 33q22 13.5 43.5 18T226 260q4-7 6-11t4-7q2-3 4.5-7t6.5-11zm-40 105q0-15-21-22.5t-46.5-6Q114 302 93 314t-21 36q0 24 21 34.5t46.5 11.5q25.5 1 46.5-6.5t21-18.5v-42zm18 110q-7-12-29-8t-43 18q-21 14-33.5 34.5T119 525q12 21 35.5 19.5t46-13.5q22.5-12 37.5-28.5t9-26.5q-4-7-6.5-11t-4.5-7.5-4.5-7.5q-2.5-4-6.5-11zm72 87q-13-7-30 7.5T238.5 571q-11.5 23-12 47t20.5 36q21 12 40.5-1t33-34.5q13.5-21.5 18-43T333 548l-36-22zm105 40q-15 0-22.5 21t-6 46.5Q375 659 387 680t36 21q24 0 34.5-21t11.5-46.5q1-25.5-6.5-46.5T444 566h-42zm225-216q0 42-16 79.5t-43.5 65Q540 522 502.5 538T423 554q-42 0-79.5-16t-65-43.5Q251 467 235 429.5T219 350q0-42 16-79.5t43.5-65q27.5-27.5 65-43.5t79.5-16q42 0 79.5 16t65 43.5q27.5 27.5 43.5 65t16 79.5z"/><glyph glyph-name="e09a" unicode="" horiz-adv-x="840" d="M576 134l-100-1 66-154-260 268 105 2-71 106h138l122-221zm31 378q54-3 97-21 18-8 35.5-20t31-29q13.5-17 22-40.5T801 347q0-31-6-54t-16-39.5q-10-16.5-23-27T730 210q-32-15-71-13h-90l-97 181H270l75-109-113-3 64-69H144q-30 7-53 26-20 17-36 47t-16 82q0 52 23 82.5t54.5 46.5q31.5 16 64 20.5T232 505q9 42 32 75 19 28 54 51.5t93 23.5q57 0 94.5-22.5T566 583q26-32 41-71z"/><glyph glyph-name="e09b" unicode="" horiz-adv-x="1103" d="M797 367q0-29-11-55t-30-45.5q-19-19.5-45-31T656 224H185q-30 0-56 11t-45.5 30.5Q64 285 53 311t-11 56q0 30 11 56t30.5 45.5Q103 488 129 499t56 11h5v12q0 30 11 56t30.5 45.5Q251 643 277 654t56 11q36 0 66.5-16.5T450 604q22 9 49 9 49 0 86.5-29.5T636 509q5 0 9 .5t9 .5q30 0 56-11t45.5-30.5Q775 449 786 423t11-56zM482 106q-2 8-6 20-5 11-13 28t-25 41q-17-24-26-41t-13-28q-5-12-5-20 0-18 13-31t31-13q19 0 31.5 13t12.5 31zM370 26q-2 8-6 20-5 11-13 27.5T326 114q-17-24-25.5-40.5T287 46q-5-12-6-20 0-19 13-32t32-13q18 0 31 13t13 32zm225 0q-2 8-6 20-5 11-13 27.5T551 114q-17-24-25.5-40.5T512 46q-5-12-6-20 0-19 13-32t32-13q18 0 31 13t13 32zm112 80q-2 8-6 20-5 11-13 28t-25 41q-17-24-26-41t-13-28q-5-12-5-20 0-18 13-31t31-13q19 0 31.5 13t12.5 31zm-450 0q-2 8-6 20-5 11-13 28t-25 41q-17-24-26-41t-13-28q-5-12-5-20 0-18 13-31t31-13q19 0 31.5 13t12.5 31z"/><glyph glyph-name="e09c" unicode="" horiz-adv-x="369" d="M154 365H0l96 125v171l-40 54h256l-39-54V490l96-125H214L184-55l-30 420z"/><glyph glyph-name="e09d" unicode="" horiz-adv-x="635" d="M275 376L166 485l157 21 120 120 11 67 181-180-67-12-120-120-21-157-109 110L0 58l275 318z"/><glyph glyph-name="e09e" unicode="" horiz-adv-x="770" d="M419 361v154l126-96h170l55 40V203l-55 39H545l-126-96v154L0 330l419 31z"/><glyph glyph-name="e09f" unicode="" horiz-adv-x="783" d="M318 156q-10 0-17-7t-7-18q0-10 7-17t17-7h196q11 0 18 7t7 17q0 11-7 18t-18 7H318zm221 293q20 0 34.5-14.5T588 400V107q0-20-14.5-34.5T539 58H196q-20 0-34.5 14.5T147 107v244h245q41 0 69.5 28.5T490 449h49zm244 0V58l-147 98v195l147 98zM0 547l49-49v-49L0 400v147zm147-147q-20 0-34.5 14.5T98 449v49q0 20 14.5 34.5T147 547h245q20 0 34.5-14.5T441 498v-49q0-20-14.5-34.5T392 400H147zm367-244q11 0 18-7t7-18q0-10-7-17t-18-7H318q-10 0-17 7t-7 17q0 11 7 18t17 7h196z"/><glyph glyph-name="e0a0" unicode="" horiz-adv-x="931" d="M724 342l96-88v56l-65 60 65 60v56l-96-88-95 88v-56l65-60-65-60v-56l95 88zM91 488h176l236 176V76L267 252H91v236z"/><glyph glyph-name="e0a1" unicode="" horiz-adv-x="840" d="M386 296q-37 0-63 26t-26 63v273q0 37 26 63t63 26h48q33 0 58-21t30-53h-78v-27h79v-27h-79v-27h79v-28h-79v-26h79v-28h-79v-27h79v-25h-79v-26h79v-26h-79v-27h79q-1-17-8.5-32.5T495 320q-12-11-27.5-17.5T434 296h-48zm214 211q10 0 17-7t7-17v-75q0-40-14.5-76t-39-63.5Q546 241 512 223t-73-22v-93h103q8 0 13.5-6t5.5-14V69q0-19-19-19H280q-19 0-19 19v19q0 8 5.5 14t13.5 6h108v93q-38 5-71 23t-57.5 45.5Q235 297 221 332.5T207 408v72q0 10 7 17t17 7q10 0 17-7t7-17v-72q0-33 12.5-62.5T302 294q22-22 51-34.5t62-12.5q33 0 62.5 12.5T529 294q22 22 34.5 51.5T576 408v75q0 10 6.5 17t17.5 7z"/><glyph glyph-name="e0a2" unicode="" horiz-adv-x="791" d="M572 286q-5 11-4 26.5t4 30.5q4 18 10 36-20 22-46 35.5T481.5 435q-28.5 7-58.5 8t-58-1q-66-5-136-28-11-17-15.5-35t-5.5-35q-1-19 1-38L56 248q-25 17-37 35T3 317q-4 13-3 24.5T3 361q3 10 6 17 28 36 61 63t67.5 46q34.5 19 68.5 31t65 19q73 16 147 12 58-5 104.5-16.5T606 506q37-15 65-33.5t48-36.5q48-43 70-94 6-38-4.5-63T759 240q-18-17-41-26l-146 72z"/><glyph glyph-name="e0a3" unicode="" horiz-adv-x="854" d="M655 360q0-51-19.5-98T580 178l-60 61q24 24 37 55.5t13 65.5q0 34-13 65.5T520 481l60 61q36-37 55.5-84t19.5-98zm199 0q0-92-34.5-175.5T719 36l-57 61q52 53 79.5 120.5T769 360q0 75-27.5 142.5T662 623l57 61q66-65 100.5-148.5T854 360zM0 474h171l228 171V75L171 246H0v228z"/><glyph glyph-name="section" unicode="§" horiz-adv-x="335"/><glyph glyph-name="e0a4" unicode="" horiz-adv-x="896" d="M448 475q22 0 41-8.5t33-22.5q14-14 22.5-33t8.5-41q0-22-8.5-41T522 295.5Q508 281 489 273t-41-8q-22 0-41 8t-33.5 22.5Q359 310 351 329t-8 41q0 22 8 41t22.5 33q14.5 14 33.5 22.5t41 8.5zm0-244q29 0 55 11t45.5 29.5q19.5 18.5 30.5 44t11 54.5q0 29-11 54.5T548.5 469Q529 488 503 499t-55 11q-29 0-55-11t-45-30q-19-19-30-44.5T307 370q0-29 11-54.5t30-44q19-18.5 45-29.5t55-11zm0 381q54 2 101.5-7.5t89-26Q680 562 715 540t64-45q67-55 117-125-23-42-53-75t-64-57.5q-34-24.5-69.5-42T640 166q-79-28-165-36-60-7-113.5 4T266 160q-48 18-90 42-46 26-78.5 56T43 313q-26 29-43 57 25 45 57.5 79t68.5 59.5q36 25.5 74 43t74 29.5q84 27 174 31z"/><glyph glyph-name="e0a5" unicode="" horiz-adv-x="809" d="M283 372q-3 13-3 28 0 26 10 48.5t26.5 39.5q16.5 17 39 26.5T404 524q14 0 28-3l84 84q-26 6-53.5 9.5T404 618q-53 0-98-9.5t-83.5-25Q184 568 153 548.5T97 509Q39 461 0 400q16-26 39-52 20-23 49-49.5t71-50.5l124 124zm93-93q13-3 28-3 26 0 48.5 9.5T492 312q17 17 27 39.5t10 48.5q0 14-3 28l124 124q41-24 70.5-50.5T770 452q23-26 39-52-40-61-98-109-25-21-56.5-40.5T585 216q-38-15-83.5-24.5T404 182q-30 0-58 3.5t-54 9.5l84 84zm28 28q18 0 35 6.5t31 20.5q14 14 21 31t7 35l-94-93zm-93 93q0 18 6.5 35t20.5 31q14 14 31.5 20.5T404 493l-93-93zm373 249L156 120l-32 31 529 529 31-31z"/><glyph glyph-name="e0a6" unicode="" horiz-adv-x="591" d="M535 320L133 64v512l402-256z"/><glyph glyph-name="e0a7" unicode="" horiz-adv-x="645" d="M93 64v512h147V64H93zm293 512h146V64H386v512z"/><glyph glyph-name="e0a8" unicode="" horiz-adv-x="613" d="M283 397l244-175-12-16-249 179L17 206 5 222l244 175L5 572l12 16 249-179 249 179 12-16-244-175zm-112 91v72q0 33 23.5 56.5T251 640h40q33 0 56.5-23.5T371 560v-65l-105-75-95 68zM291 40h120V0H131v40h120v80q-26 0-51.5 11T153 160q-21 18-36.5 41.5T95 251l36 26q1-22 11.5-43t27-37.5q16.5-16.5 38-26.5t43.5-10h40q21 0 41.5 9.5t37 24.5q16.5 15 27.5 35t13 41l36-25q-7-25-22.5-47.5t-36.5-40Q366 140 341 130t-50-10V40zm-57 357l-63-45v90l63-45zm177 3h40V287l-40 29v84zm-113-3l73 52V345l-73 52zm-167 3v-77l-40-29v106h40zm120-200q-33 0-56.5 23.5T171 280v26l95 68 105-76v-18q0-33-23.5-56.5T291 200h-40z"/><glyph glyph-name="e0a9" unicode="" horiz-adv-x="840" d="M677 607V375L514 244l-96 76-95-76-163 131v232h517zM129 397l-73 59h73v-59zm652 59l-73-59v59h73zM759-1L418 271 78-1h681zM49 22v396l247-198L49 22zm742 0v396L544 220 791 22z"/><glyph glyph-name="e0aa" unicode="" horiz-adv-x="840" d="M298 234L51 36v395l247-197zm248 0L793 36v395L546 234zm217 220L424 182 84 454h679zM785-2L518 209l-95-76-94 76L62-2h723z"/><glyph glyph-name="e0ab" unicode="" horiz-adv-x="840" d="M764 543q14-14 14.5-33T765 478l-68-68-199 199 68 68q13 14 32 13.5t33-14.5l133-133zM627 412l34-33L328 46 128 245l333 333 33-33-300-300 34-33 299 300 67-67-299-299 33-34 299 300zM195 112L295 12 178-5 62-21 78 95l17 116 100-99z"/><glyph glyph-name="e0ac" unicode="" horiz-adv-x="882" d="M688 215q23 0 43-8.5t34.5-23.5q14.5-15 23-35t8.5-42q0-23-8.5-42.5t-23-34Q751 15 731 6.5T688-2q-22 0-41.5 8.5t-34.5 23q-15 14.5-23.5 34T580 106q0 15 5 32l-155 79q-14-17-33.5-27T354 180q-25 0-45 11t-34 30l-101-51q4-9 4-23 0-28-19.5-47.5T111 80q-29 0-48.5 19.5T43 147q0 29 19.5 48.5T111 215q17 0 30.5-7.5T165 188l100 51q-7 17-7 37 0 35 22 61.5t55 33.5v132q-33 7-55 33t-22 61q0 41 28 69t68 28q41 0 69-28t28-69q0-35-23-62t-58-33V371q35-5 58-32t23-63q0-13-5-28l155-78q14 20 37 32.5t50 12.5z"/><glyph glyph-name="e0ad" unicode="" horiz-adv-x="840" d="M815 560V215H709v138H130V215H24v345h106v-93h579v93h106zm-175-27H200v114h440V533zM200 280h440V1H200v279z"/><glyph glyph-name="e0ae" unicode="" horiz-adv-x="840" d="M800 43l-83-83-222 222q-34-22-73-34.5T339 135q-59 0-111 22.5T137 219q-39 39-61.5 91T53 421q0 59 22.5 111t61.5 91q39 39 91 61.5T339 707q59 0 111-22.5t90.5-61.5q38.5-39 61-91T624 421q0-44-12-83t-34-73L800 43zM339 242q37 0 69.5 14t57 38.5q24.5 24.5 38.5 57t14 69.5q0 37-14 69.5t-38.5 57Q441 572 408.5 586T339 600q-37 0-69.5-14t-57-38.5Q188 523 174 490.5T160 421q0-37 14-69.5t38.5-57q24.5-24.5 57-38.5t69.5-14z"/><glyph glyph-name="e0af" unicode="" horiz-adv-x="840" d="M413 539q-9-8-24-12.5t-30-6.5q-18-3-37-3-15-27-18.5-55.5t0-58q3.5-29.5 12.5-58t21-53.5q27-60 72-118 19-5 38.5-3t35.5 7q18 5 36 14L625 67q-8-29-20.5-46.5T578-6q-11-8-21.5-11T538-21q-10-1-19 0-44 14-80.5 36t-66 47.5Q343 88 320 116t-40 55q-40 63-62 134-15 56-20.5 103.5t-3 87.5q2.5 40 10 72.5T222 627q24 60 64 98 34 18 60.5 17t45.5-10q22-11 39-30l-18-163z"/><glyph glyph-name="e0b0" unicode="" horiz-adv-x="840" d="M420 793q55 0 103.5-21t85-57q36.5-36 57.5-85t21-104q0-55-25-113t-64-126.5Q559 218 512 135T420-53q-45 105-92.5 188t-86 151.5Q203 355 178 413t-25 113q0 55 21 104t57.5 85q36.5 36 85 57T420 793zm0-404q28 0 53 10.5t43.5 29.5q18.5 19 29 43.5T556 526q0 28-10.5 53t-29 43.5Q498 641 473 651.5T420 662q-29 0-53.5-10.5t-43.5-29Q304 604 293.5 579T283 526q0-29 10.5-53.5T323 429q19-19 43.5-29.5T420 389z"/><glyph glyph-name="e0b1" unicode="" horiz-adv-x="1000" d="M250-20q-35 0-67.5 14T125 32q-23 24-37 55t-15 66q-1 35 13 71t47 69l37.5 37.5 56 56L294 454l72 72 69 69 59 59q28 27 61 37t67 1q33-8 58-33t33-58q9-34-1-67t-38-61L329 128q-14-15-30.5-23.5T265 94q-35-3-58 20-10 10-15.5 24t-4.5 30q1 16 9 33.5t25 34.5l242 242q8 8 18 8t18-8q8-7 8-17.5t-8-18.5L257 200q-16-16-18.5-29.5T243 150q7-7 16-5 16 1 34 19l345 345q37 37 26 79-5 20-20 35t-35 20q-42 11-79-25l-59-59-69-69-72-72-67.5-67.5-56-56L169 257q-25-26-35.5-52.5t-10-51q.5-24.5 11-47T161 68q16-16 38.5-26.5t47-11q24.5-.5 51 10T349 76l362 361q7 8 17.5 8t18.5-8q8-8 8-18t-8-18L386 40Q354 8 319-6t-69-14z"/><glyph glyph-name="e0b2" unicode="" horiz-adv-x="707" d="M371 799q34 0 64-13t52.5-35.5Q510 728 523 698t13-64v-54h-71v49q0 19-7.5 36.5t-20 30q-12.5 12.5-30 20T371 723q-20 0-37-7.5t-29.5-20q-12.5-12.5-20-30T277 629v-49h-71v54q0 34 13 64t35.5 52.5Q277 773 307 786t64 13zm38-556q18 10 29 28t11 40q0 33-23 56t-55 23q-32 0-55-23t-23-56q0-22 11-40t29-28l-29-112h134l-29 112zm156 279q37 0 63-26t26-63V89q0-38-26-64T565-1H178q-38 0-64 26T88 89v344q0 37 26 63t64 26h387z"/><glyph glyph-name="e0b3" unicode="" horiz-adv-x="840" d="M781 518v-93H38v169h299v-76h444zM38 341h743V1H38v340z"/><glyph glyph-name="e0b4" unicode="" horiz-adv-x="840" d="M259 207h218v-35H259v35zm0 102h218v-34H259v34zm0 103h218v-35H259v35zm530 162V87q0-17-7-32.5t-18-27Q753 16 738.5 9T708 2H156q-52 0-78.5 28T51 124v355h102v95h636zM153 427h-50V124q0-33 6.5-49T127 59q26 0 26 65v303zm584-261H510v251h227v105H205V124q0-23-4-40t-11-30h518q14 0 21.5 11.5T737 87v79z"/><glyph glyph-name="e0b5" unicode="" horiz-adv-x="840" d="M566 703h64V518h-64v185zM735 51H93v392h642V51zm-73 560V486H535v125H318V486H191v125H38V-1h764v612H662zm-439 92h63V518h-63v185zm464-384h-77v76h77v-76zm0-110h-77v77h77v-77zM218 100h-77v76h77v-76zm0 109h-77v77h77v-77zm156 110h-76v76h76v-76zm0-219h-76v76h76v-76zm0 109h-76v77h76v-77zm157 110h-77v76h77v-76zm0-219h-77v76h77v-76zm0 109h-77v77h77v-77z"/><glyph glyph-name="e0b6" unicode="" horiz-adv-x="742" d="M374 162l51-51-66-67q-34-34-82-34-23 0-44.5 8.5T195 44L34 205q-17 17-25.5 38.5T0 287q0 22 8.5 43.5T34 369l161 160q17 17 38 25.5t43.5 8.5q22.5 0 44-8.5T359 529l108-108-52-51-108 108q-13 13-30.5 13T246 478L85 317q-12-13-12-30.5T85 256L246 96q12-13 30.5-12.5T307 96l67 66zm334 395q34-34 34-82t-34-82L547 233q-34-34-82-34t-82 34L275 341l51 52 109-109q12-12 30-12t31 12l160 161q13 13 13 30 0 18-13 31L495 666q-12 13-30 13t-30-13l-67-66-52 51 67 67q17 17 38.5 25.5T465 752q22 0 43.5-8.5T547 718l161-161z"/><glyph glyph-name="e0b7" unicode="" horiz-adv-x="840" d="M384 186l-72 72 300 300H437v102h349V313H684v173L384 186zM525-77H210q-33 0-62.5 12.5T96.5-30Q75-8 62 21.5T49 84v315q0 33 13 62.5T96.5 513q21.5 22 51 34.5T210 560h149V459H210q-25 0-42-17.5T151 399V84q0-25 17-42.5T210 24h315q25 0 42.5 17.5T585 84v149h101V84q0-33-12.5-62.5t-34.5-51Q617-51 587.5-64T525-77z"/><glyph glyph-name="e0b8" unicode="" horiz-adv-x="840" d="M456 142L258-51v658q0 29-17.5 49.5T203 689q-25 14-55 22h379q60 0 92.5-31t32.5-73V-51L456 142z"/><glyph glyph-name="e0b9" unicode="" horiz-adv-x="840" d="M462-57l-37 316-292-106 574 584L462-57z"/><glyph glyph-name="e0ba" unicode="" horiz-adv-x="840" d="M104 574h639L496 287V-52L357 28v266L104 574zm647 118q6 0 10.5-4.5T766 676v-18q0-6-4.5-10.5T751 643H94q-7 0-11.5 4.5T78 658v18q0 16 16 16h657z"/><glyph glyph-name="e0bb" unicode="" horiz-adv-x="1000" d="M790 648h-39l-68-70-68 70h-39l107-114 107 114zM683 748q28 0 53-10.5t43.5-29.5q18.5-19 29-44t10.5-53q0-29-10.5-53.5t-29-43.5Q761 495 736 484.5T683 474q-28 0-53 10.5T586.5 514q-18.5 19-29 43.5T547 611q0 28 10.5 53t29 44q18.5 19 43.5 29.5t53 10.5zM478 600q0-43 18.5-79.5T547 459L429 321V-22L288 59v269L32 611h447q0-3-.5-5.5t-.5-5.5zM43 649q-6 0-10.5 4.5T28 665v18q0 7 4.5 11.5T43 699h467q-14-21-22-50H43z"/><glyph glyph-name="e0bc" unicode="" horiz-adv-x="1000" d="M783 561L676 675 570 561h39l68 70 67-70h39zM677 745q28 0 52.5-11t43-29.5q18.5-18.5 29-43.5t10.5-53q0-29-10.5-53.5t-29-43.5q-18.5-19-43-29.5T677 471q-28 0-53 10.5T580.5 511q-18.5 19-29 43.5T541 608q0 28 10.5 53t29 43.5Q599 723 624 734t53 11zM472 597q0-43 18.5-79.5T541 455L423 318V-26L281 55v270L25 608h447v-11zM37 646q-7 0-11.5 4.5T21 661v19q0 6 4.5 10.5T37 695h467q-16-24-23-49H37z"/><glyph glyph-name="e0bd" unicode="" horiz-adv-x="840" d="M399 291l47-54-55-56-56 47-1 1q-19-9-37-15v-2l-4-72h-79l-6 72v2q-20 6-37 16l-2-2-55-47-56 56 48 54 2 2q-9 16-15 36h-3l-72 7v78l72 5h3q3 9 6.5 18.5T108 455l-2 2-46 55 55 56 54-48 2-2q17 10 37 16v2l6 72h79l4-72v-2q20-6 37-16l2 2 53 48 56-56-47-55-1-2q5-8 9-17t6-19h3l71-5v-78l-72-7h-2q-2-10-6-19t-9-17l2-2zm-146-3q18 0 33.5 6.5t27 18.5q11.5 12 18.5 27.5t7 33.5q0 18-7 33.5t-18.5 27Q302 446 286.5 453t-33.5 7q-18 0-34-7t-27.5-18.5Q180 423 173 407.5t-7-33.5q0-36 25.5-61t61.5-25zm519-101l48-25-24-54-51 18-2 1q-9-12-21-21v-1l15-52-55-21-22 49-1 2q-15-2-29 1l-1-2-26-47-54 24 19 50 1 2q-6 5-10.5 10.5T549 132h-2l-52-15-21 55 49 22 2 1q-2 15 1 29l-2 1-47 26 24 54 51-19 1-1q11 13 22 21l-1 1-16 52 55 20 23-48 1-2q17 2 30-1v2l25 48 54-24-18-51-1-2q6-5 11-10.5t10-10.5h2l51 16 21-55-49-23-1-1v-15q0-7-1-14l1-1zm-65-7q11 24 1.5 49T675 265q-25 11-49.5 1.5T590 232q-11-24-1.5-49t33.5-36q24-11 49-1.5t36 34.5z"/><glyph glyph-name="e0be" unicode="" horiz-adv-x="709" d="M0 0h79v749H0V0zm675 339q-73-28-130.5-29.5t-105 9Q392 329 352 345t-77.5 24q-37.5 8-75 1.5T119 329v422q34 36 77 44t90.5 2q47.5-6 98.5-20.5t101.5-24q50.5-9.5 98.5-8t90 27.5V339z"/><glyph glyph-name="e0bf" unicode="" horiz-adv-x="840" d="M400 800q83 0 156-31.5T683 683q54-54 85.5-127T800 400q0-83-31.5-156T683 117q-54-54-127-85.5T400 0q-83 0-156 31.5T117 117q-54 54-85.5 127T0 400q0 83 31.5 156T117 683q54 54 127 85.5T400 800zm14-724q63 3 118.5 28t97 67q41.5 42 66.5 97t28 118h-80v29h80q-3 63-28 118t-67 96.5Q587 671 532 696t-118 28v-80h-28v80q-63-3-118.5-28t-97-67Q129 587 104 532T76 414h81v-29H76q3-63 28-118t67-96.5q42-41.5 97-66.5t118-28v81h28V76zm118 195l-27-25-111 120q-14 2-23 11t-9 23q0 15 10.5 25t24.5 10l157 167 30-27-153-175q0-8-5-16l106-113z"/><glyph glyph-name="e0c0" unicode="" horiz-adv-x="717" d="M663 624L613 0H140L80 624h146v-1l30-450 31 2-30 449h101V173h31v451h95l-30-449 31-2 30 450v1h148zm32 77v-49H46v49h217q2 8 10 13.5t19 5.5h163q11 0 19.5-5.5T484 701h211z"/><glyph glyph-name="e0c1" unicode="" horiz-adv-x="840" d="M666 300l64 61H479v35h251l-64 62v45l133-124-133-125v46zM413 539q-9-8-24-12.5t-30-6.5q-18-3-37-3-15-27-18.5-55.5t0-58q3.5-29.5 12.5-58t21-53.5q27-60 72-118 19-5 38.5-3t35.5 7q18 5 36 14L625 67q-8-29-20.5-46.5T578-6q-11-8-21.5-11T538-21q-10-1-19 0-44 14-80.5 36t-66 47.5Q343 88 320 116t-40 55q-40 63-62 134-15 56-20.5 103.5t-3 87.5q2.5 40 10 72.5T222 627q24 60 64 98 34 18 60.5 17t45.5-10q22-11 39-30l-18-163z"/><glyph glyph-name="e0c2" unicode="" horiz-adv-x="840" d="M612 300l-64 61h251v35H548l64 62v45L479 379l133-125v46zM413 539q-9-8-24-12.5t-30-6.5q-18-3-37-3-15-27-18.5-55.5t0-58q3.5-29.5 12.5-58t21-53.5q27-60 72-118 19-5 38.5-3t35.5 7q18 5 36 14L625 67q-8-29-20.5-46.5T578-6q-11-8-21.5-11T538-21q-10-1-19 0-44 14-80.5 36t-66 47.5Q343 88 320 116t-40 55q-40 63-62 134-15 56-20.5 103.5t-3 87.5q2.5 40 10 72.5T222 627q24 60 64 98 34 18 60.5 17t45.5-10q22-11 39-30l-18-163z"/><glyph glyph-name="e0c3" unicode="" horiz-adv-x="840" d="M558 273v48l56 51-56 52v48l82-75 82 75v-48l-56-52 56-51v-48l-82 75-82-75zM413 539q-9-8-24-12.5t-30-6.5q-18-3-37-3-15-27-18.5-55.5t0-58q3.5-29.5 12.5-58t21-53.5q27-60 72-118 19-5 38.5-3t35.5 7q18 5 36 14L625 67q-8-29-20.5-46.5T578-6q-11-8-21.5-11T538-21q-10-1-19 0-44 14-80.5 36t-66 47.5Q343 88 320 116t-40 55q-40 63-62 134-15 56-20.5 103.5t-3 87.5q2.5 40 10 72.5T222 627q24 60 64 98 34 18 60.5 17t45.5-10q22-11 39-30l-18-163z"/><glyph glyph-name="e0c4" unicode="" horiz-adv-x="584" d="M83 508H0v82h83v-82zm499 0H126v82h456v-82zM85 384H2v82h83v-82zm499 0H128v82h456v-82zM85 259H2v82h83v-82zm499 0H128v82h456v-82zM83 130H0v82h83v-82zm499 0H126v82h456v-82z"/><glyph glyph-name="e0c5" unicode="" horiz-adv-x="640" d="M549 586q40 0 65.5-22.5T640 501V181q0-20-7-39t-19-34q-12-15-28.5-24.5T549 74H101q-20 0-38 9.5T31 108q-14 15-22.5 34T0 181v320q0 20 8.5 35.5T31 563q14 11 32 17t38 6h448zM389 405v64H261v-64h128zm-128-64v-64h128v64H261zM69 405h128v64H69v-64zm0-128h128v64H69v-64zm128-128v64H69v-32q0-14 9.5-23t22.5-9h96zm192 0v64H261v-64h128zm192 64H453v-64h96q14 0 23 9t9 23v32zm0 128H453v-64h128v64zm0 128H453v-64h128v64z"/><glyph glyph-name="e0c6" unicode="" horiz-adv-x="843" d="M679 413q7-9 18-5L283 0l-76 77q8 16 11 33.5t-2 35.5q-5 20-16.5 35.5t-27.5 25q-16 9.5-35 13T99 218q-10-3-23-8L0 287l407 401q0-4 4-8 5-5 12.5-5t12.5 5q5 5 5 12.5t-5 12.5q-4 4-8 4l92 91 78-79q-10-16-13.5-34.5T586 649q5-20 16.5-35.5T630 588q16-10 35-13t39 2q16 3 26 10l73-74-95-94q3 10-4 18-5 5-12.5 5t-12.5-5q-5-5-5-12t5-12zM485 631q5 5 5 12.5t-5 12.5q-5 5-12.5 5t-12.5-5q-5-5-5-12t5-12q5-5 12.5-5.5T485 631zm42-42q5 5 5 12.5t-5 12.5q-5 5-12 5t-12-5q-5-5-5.5-12.5T502 589q5-5 12.5-5t12.5 5zm49-49q5 5 5 12.5t-5 12.5q-5 5-12.5 5t-12.5-5q-5-5-5-12.5t5-12.5q5-5 12.5-5t12.5 5zm42-42q5 5 5.5 12t-4.5 12q-5 5-12.5 5t-12.5-5q-5-5-5-12t5-12q5-5 12-5t12 5zm43-43q5 5 5 12.5t-5 12.5q-5 5-12.5 5t-12.5-5q-5-5-5-12.5t5-12.5q5-5 12.5-5t12.5 5z"/><glyph glyph-name="e0c7" unicode="" horiz-adv-x="960" d="M843 429V275H506v66h-93l-95-95v-61h182V40H113v145h187v59L192 351l106 106v60H167q-23 0-39.5 17.5T111 576v48q0 23 16.5 39.5T167 680h278q23 0 38.5-16t15.5-40v-48q0-25-15.5-42T445 517H316v-59l99-99h91v70h337zM445 546q11 0 18 8.5t7 21.5v48q0 12-7 19.5t-18 7.5H167q-11 0-19-8t-8-19v-48q0-12 8-21t19-9h278zM142 157V69h330v88H142zm672 243H534v-96h280v96z"/><glyph glyph-name="e0c8" unicode="" horiz-adv-x="886" d="M712 344q20 0 33.5-12t13.5-31V87q0-19-13.5-33T712 40H507q-20 0-36 14t-16 33v214q0 19 16 31t36 12h205zm-247 41q-20 0-35.5-12T414 342V220h-77q-20 0-35.5 14.5T286 268v213q0 19 15.5 31t35.5 12h206q20 0 33.5-12t13.5-31v-96H465zM298 563q-20 0-35.5-12T247 520V376H136q-20 0-36 14.5T84 424v213q0 19 16 31t36 12h205q20 0 33.5-12t13.5-31v-74h-90z"/><glyph glyph-name="e0c9" unicode="" horiz-adv-x="816" d="M681 295q41 0 69-28t28-68q0-40-28-68t-69-28q-23 0-42 10t-33 27L484 71q2-10 2-15 0-23-16.5-39.5T430 0q-23 0-39.5 16.5T374 56q0 23 16.5 39.5T430 112q14 0 26-7t20-18l121 68q-12 19-12 44 0 28 16 52l-77 61q-19-20-44.5-31.5T425 269q-32 0-58.5 12.5T321 316L174 208q18-26 18-56 0-40-28-68T96 56q-40 0-68 28T0 152q0 40 28 68t68 28q39 0 66-27l148 109q-22 35-22 76 0 21 6 41l-105 46q-10-14-25.5-22.5T130 462q-31 0-52.5 21.5T56 536q0 31 21.5 52.5T130 610q30 0 51.5-21.5T203 536q0-14-5-27l103-45q16 33 47 55t70 24l5 65q-37 4-62.5 31T335 704q0 40 28 68t68 28q40 0 68-28t28-68q0-24-11-46l107-72q16 16 40 16 23 0 39.5-16.5T719 546q0-23-16.5-39.5T663 490q-23 0-39.5 16.5T607 546q0 14 6 26l-107 71q-14-16-33-25.5t-42-9.5l9-1-5-65q27-2 50-13.5t40-29.5q17-18 27-42t10-51q0-23-7-43.5T536 325l76-60q27 30 69 30zm-256 16q19 0 36.5 7.5t30.5 20q13 12.5 20.5 30T520 406q0 19-7.5 36.5T492 473q-13 13-30.5 20.5T425 501q-20 0-37.5-7.5t-30-20.5q-12.5-13-20-30.5T330 406q0-40 27.5-67.5T425 311z"/><glyph glyph-name="e0ca" unicode="" horiz-adv-x="840" d="M420 205q-70 0-123-10t-92-25.5q-39-15.5-66-36T95 92Q55 43 50-20h740q-6 63-46 112-17 21-44 41.5t-66 36Q595 185 542.5 195T420 205zM201 401q-29 94-17 168 5 31 19.5 61.5T247 685q29 24 74 38.5T433 738q70 0 113.5-23.5t67-59q23.5-35.5 31-78t5.5-80q-2-37.5-9-65.5t-13-35q-2 20-4.5 27t.5 15q-27 2-50.5 12T523 491q-6-1-2-14l4-14q-23 4-43 14-17 8-34 22t-25 37q-6-2-6.5-9t1.5-14q2-9 6-18-26 9-45 23-17 12-31 32t-13 51q-12-27-36-51.5T252 501q-23-24-39-48.5T201 401z"/><glyph glyph-name="e0cb" unicode="" horiz-adv-x="931" d="M656 319q-18-9-37-12.5t-35-4.5q-18-1-36 0-1 8-1 15 0 6 1.5 12.5T555 341q12 8 22 25 8 14 16 37.5t11 60.5q2 25-15 53.5T546.5 571q-25.5 25-54 42.5T445 635q-6-11 9.5-28t35.5-33q24-18 57-39-36 11-69 26-28 13-55 30.5T382 632q2-17 13-33t25-29q16-15 35-29-26 5-50 20-20 13-41 37t-35 67q-40-24-58.5-62t-24-76.5q-5.5-38.5-2.5-71t6-44.5q3-12 11.5-27t16.5-31q8-16 12.5-30t-.5-23q-2-4-16-5.5t-32 0q-18 1.5-37 7.5t-31 18q8 11 15 24 5 11 10 26t5 34q0 19-6.5 42.5t-14 48.5q-7.5 25-13 51t-3.5 49q4 49 16 80t31 50.5q19 19.5 44 29.5t54 16l9.5 9.5q8.5 8.5 24 17.5t37.5 15.5q22 6.5 49 3.5 92-10 139.5-44t66.5-81.5Q657 644 655.5 589T648 482q-6-52-8-95.5t16-67.5zM420 204q70 0 122.5-9.5T634 169q39-16 66-36t44-41q40-49 46-112H50q5 63 45 112 17 21 44 41t66 36q39 16 92 25.5t123 9.5z"/><glyph glyph-name="e0cc" unicode="" horiz-adv-x="822" d="M577 489q-12 0-21.5-10.5T539 450q0 6 .5 12t.5 11q0 4-3 9-2 2-3.5 5t-2.5 2q-4 0-6-2-1 3-3 11-1 1-1 2t-1 2q-1 2-1.5 4t-1.5 4q-2 6-6 12-7 11-10.5 22.5T499 570q4 23-15 44-20 21-50 24-18 1-36 4t-36 5q-17 1-32.5 1.5T297 647q-8-2-16.5-7T264 630q-2-2-4.5-3.5T254 623q-11-5-17.5-15.5T234 586q5-17 2-30t-13-26q-11-14-14.5-30t-4.5-33q0-16 1-31t2-29q-2 8-4.5 16.5T197 442h-4q-2-3-3.5-6t-4.5-8q2 7 2 13t2 11q4 13-1.5 24.5T169 493q10 5 10 11.5V519q1 23 1 46.5t1 46.5q0 5 1 7l10 24 10 24 6 18q3 9 5 19 1 0 .5.5t.5.5q7 8 13.5 17t14.5 17q4 4 11 3.5t13 1.5q3 0 5 2 5 8 12 13.5t15 10.5q3 2 6.5 4t7.5 4q10 5 19 9t19 9q4 2 8 3.5t9-1.5q8-3 15.5-2t15.5 4q4 1 11-3v-5q17-11 35.5-15t34.5-15q15-11 30.5-20.5T541 721q-6-2-10-3 5-7 9-12.5t8-11.5q11-17 19.5-34t12.5-37q0-3 .5-6.5t.5-6.5q-2-28-3.5-55t-3.5-55q0-3 1-5.5t3-5.5h-1zM389 213l-40-39 39-39 40 39-39 39zm128 12q50-8 88-22t66-31.5q28-17.5 47.5-37T750 96q29-45 33-96H0q3 50 30 94 12 19 30 38t45 36.5q27 17.5 64 32t86 23.5l92-188 30 109q3 0 6-.5t6-.5q2 0 4.5.5t4.5.5l32-102 86 176q0 2 .5 3t.5 3z"/><glyph glyph-name="e0cd" unicode="" horiz-adv-x="741" d="M437 210q51-6 89.5-18t67-28q28.5-16 48-34.5T673 93q29-43 33-93H0q3 51 33 94 13 18 32.5 36.5t48 34Q142 180 181 192t90 18q-16-7-39-19.5T176 157l105-7 73-101 72 101 105 7q-32 21-55 33.5T437 210zm-84 4h19q9 0 18-1L354 49l-36 165h35zm225 110q-17-8-35.5-11.5T509 308q-18-1-34 0-1 7-1 14 0 6 1.5 12t6.5 10q11 8 21 24 8 14 15.5 36.5T529 462q2 24-14.5 51.5t-41 51Q449 588 422 605t-46 20q-5-11 9.5-27t34.5-31q23-18 54-37-34 11-65 25-26 12-52.5 29T317 623q1-17 12-32.5t24-27.5q15-14 33-27-24 4-47 18-20 12-40 35.5T266 654q-38-23-56-59t-23-73q-5-37-2-68t6-42q3-11 11-26t15.5-30q7.5-15 11.5-28t0-22q-2-3-15.5-4.5t-31 0q-17.5 1.5-35.5 7T118 325q8 10 14 22 5 11 9.5 25.5T146 405q0 18-6 40.5T127 492q-7 24-12.5 48.5T111 587q4 47 15.5 77t30 48.5q18.5 18.5 42 27.5t51.5 15q0 1 8.5 9.5t23.5 17q15 8.5 35.5 14.5t46.5 3q66-7 107.5-27.5t65-50Q560 692 569 656t9-74.5q0-38.5-4.5-77t-8-73q-3.5-34.5-2-62.5t14.5-45z"/><glyph glyph-name="e0ce" unicode="" horiz-adv-x="775" d="M445 50V26q0-12-1-18-1-9-3.5-12T430-8q-6-1-6-5 0-5 4-5h73q3 0 3 5t-3 5q-14 0-16.5 2.5T481 3q-1 5-1 15.5T479 45q5-1 9-1.5t12-.5q13 0 21 2t16 6q17 9 21.5 21t4.5 21q0 16-8 26-8 11-20.5 15.5T504 139h-11q-6 0-13-1h-41q-5 1-13 1-2 0-2-8 0-3 6-3 5 0 9-1.5t5-10.5q1-8 1-24.5V50zm46 4q-3 0-6 .5t-5 .5v67q0 4 2 4.5t10 .5q5 0 11-.5t11-4q5-3.5 8.5-10.5t3.5-19q0-17-8-28t-27-11zm-143 67q2-5 2-18.5V48q0-20-1-34-1-11-4-16t-13-6q-8 0-8-5t3-5h79q3 0 3 5t-3 5h-8q-8 0-10 3t-3 8q-1 7-1 23v64.5q0 16.5 1 22.5 2 9 5.5 11.5T404 128q5 0 5 7 0 4-3 4h-4q-6 0-16-.5t-20-.5q-12 0-22 .5t-15 .5q-5 0-5-5 0-6 4-6 11-1 14.5-1.5t5.5-5.5zm-70-25q-8-20-16.5-40T245 16q-6 15-13.5 36.5T218 89q-2 5-6 17t-4 15q0 7 13 7 5 1 5 6 0 4-3 4h-67q-3 0-3-5 0-4 2-5 5 0 9-2.5t9-14.5q1-4 2.5-7t4-9.5q2.5-6.5 7-18T199 45q8-20 14.5-37.5T222-16q1-4 3-4t8 1q6 1 10 2 1 0 1.5 2.5T249-4q4 9 10.5 22.5t13 27.5Q279 60 284 71.5t7 14.5q7 15 11.5 23t7.5 12q3 4 5 5l6 3q2 1 2 6 0 3-1 3h-55q-2 0-2-.5V132q0-4 3-4 11 0 14.5-1.5t3.5-5.5q0-5-3-12.5L278 96zm296 111q7 0 11.5-5t4.5-13q0-8-4.5-13t-11.5-5H161q-6 0-10.5 5t-4.5 13q0 8 4.5 13t10.5 5h413zm123 434q17 0 29-12.5t12-29.5q0-17-12-29t-29-12q-8 0-15 3-14-32-30.5-74T619 398.5q-16-46.5-27.5-93T577 219H162q-3 40-15 86.5t-28 93Q103 445 86 487t-30 74q-8-3-15-3-17 0-29 12T0 599q0 17 12 29.5T41 641q17 0 29-12.5T82 599q0-19-15-32 20-27 45.5-60t51-60q25.5-27 47-41.5T244 400q9 7 12 41t1.5 79q-1.5 45-5 93t-7.5 85h-1q-17 0-29 12t-12 29q0 17 12 29t29 12q17 0 29-12t12-29q0-14-8-24.5T257 700q10-34 24-75.5t29-77.5q15-36 30-60t29-24q13 0 28.5 24t31 60q15.5 36 29 77.5T482 700q-13 4-21 14.5t-8 24.5q0 17 12 29t29 12q17 0 29-12t12-29q0-17-12-29t-29-12q-4-37-8-85t-5.5-93q-1.5-45 1.5-79t12-41q12-9 33.5 5.5t47 41.5q25.5 27 51.5 60t46 60q-16 13-16 32 0 17 12 29.5t29 12.5z"/><glyph glyph-name="e0cf" unicode="" horiz-adv-x="937" d="M868 700q7-11 12.5-26t8.5-28v-2h-3q-50 6-142-4-29-4-60.5-11.5T623 607q-44-21-59.5-44T544 528q-3-7-4-12t-1-7q-1-1-1-2l-1 1q-6 7-10 17-4 8-7 16.5t-1 13.5q8 35 29 58t51 43q54 36 133 51 26 5 49.5 7.5T825 717q22 0 32-2h3l1-2q2-2 4-6t3-7zm-142 98q2 0 2-1v-2q-5-9-13-25t-28-35q-16-14-33-24t-35-20.5q-18-10.5-36-23T548 636q-12-13-18-25t-9-20q-2-3-2-5.5t-2-5.5q-2-6-2-9 0-2-1-2l-2 2q0 1-1 5t-2 12v2q-1 6-.5 13.5T510 619q3 21 14 40t28 36q8 10 17.5 18t20.5 17q4 3 12 9.5t17 14.5q9 8 16.5 18t10.5 19q1 0 1 1 1 1 2 1 7 2 16 3.5t18 2.5q11 2 23 1.5t20-2.5zm165-168q3-23 0-41-2-14-4.5-25.5T882 546q0-1-1-2h-2l-49 1q-68 1-108-10.5T665 504q-11-11-15-24t0-27q5-13 9-20 2-2 2.5-3t2.5-3q1-1 2-1.5t2-1.5l2-2 1-2q0-1-1 0h-10.5q-3.5 0-7.5 2-15 4-35 18t-27 43q-6 26 1 46.5t24 36.5q17 17 44.5 30t59 21q31.5 8 65.5 12.5t65 4.5q11 0 21-.5t19-1.5h1q1-1 1-2zm-16-32h-20v20h-17v-20h-20v-17h20v-20h17v20h20v17zM442 27q12 0 12-13 0-14-12-14H124q-5 0-8.5 4T112 14q0 5 3.5 9t8.5 4h318zm94 334q14 0 23-9t9-23q0-13-9-22t-23-9q-3 0-5.5.5T525 300q-11-24-24-57t-25-68.5Q464 139 455 103t-11-66H124q-2 30-11 66t-21 71.5Q80 210 66.5 243T43 300q-3-1-5.5-1.5T32 298q-14 0-23 9t-9 22q0 14 9 23t23 9q13 0 22-9t9-23q0-17-12-24 15-21 35-46.5t39.5-46.5q19.5-21 36.5-32t26-4q7 6 9 32t1 60.5q-1 34.5-4 71.5t-6 65q-14 0-23 9t-9 23q0 13 9 22t23 9q13 0 22-9t9-22q0-23-22-30 8-26 19-58t22.5-59.5q11.5-27.5 23-46T284 225q10 0 22 18.5t23.5 46Q341 317 352 349t19 58q-22 7-22 30 0 13 9 22t22 9q14 0 23-9t9-22q0-14-9-23t-23-9q-3-28-6-65t-4-71.5q-1-34.5 1-60.5t9-32q9-7 26 4t36.5 32q19.5 21 39.5 46.5t35 46.5q-12 7-12 24 0 14 9 23t22 9z"/><glyph glyph-name="e0d0" unicode="" horiz-adv-x="884" d="M442 0q-69 0-132 22.5t-114 62Q145 124 108.5 178T55 295h88q17-46 46.5-84.5t68-66.5q38.5-28 85.5-44t99-16q65 0 122.5 25T665 177q43 43 68 100.5T758 400q0 65-25 122.5T665 623q-43 43-100.5 68T442 716q-47 0-90-13t-79.5-36q-36.5-23-66-56T156 539l118-118H0v274l97-97q25 46 61.5 83t81 63.5q44.5 26.5 96 41T442 800q82 0 155-31.5t127.5-86Q779 628 810.5 555T842 400q0-82-31-155t-85-127.5q-54-54.5-127-86T442 0zm135 257L379 375v214h63V413l169-101-34-55z"/><glyph glyph-name="e0d1" unicode="" horiz-adv-x="696" d="M566 703q48-49 72.5-110T663 468.5q0-63.5-24.5-124.5T566 234q-26-26-65.5-65T423 92L331 0 97 234q-48 49-72.5 110T0 468.5Q0 532 24.5 593T97 703q49 48 110 72.5T331.5 800q63.5 0 124.5-24.5T566 703zm-111-53L326 531 198 650v-76l88-81-88-81v-77l128 119 129-119v77l-88 81 88 81v76z"/><glyph glyph-name="e0d2" unicode="" horiz-adv-x="829" d="M627 588H202v-58h425v58zm0-136H202v-59h425v59zm0-136H202v-59h425v59zm27 344q50-50 75-112.5t25-128q0-65.5-25-128T654 179L414-61 228 125l-54 54q-50 50-75 112.5t-25 128q0 65.5 25 128T174 660q50 49 112.5 74t128 25q65.5 0 127.5-25t112-74z"/><glyph glyph-name="e0d3" unicode="" horiz-adv-x="696" d="M566 703q48-48 72.5-109T663 469q0-64-24.5-125T566 234q-26-26-65.5-65T423 92L331 0 97 234q-48 49-72.5 110T0 468.5Q0 532 24.5 593T97 703q49 48 110 72.5T331.5 800q63.5 0 124.5-24.5T566 703zm-78-42L309 396l-95 98v-68l103-107 171 253v89z"/><glyph glyph-name="e0d4" unicode="" horiz-adv-x="696" d="M566 703q48-49 72.5-110T663 468.5q0-63.5-24.5-124.5T566 234q-26-26-65.5-65T423 92L331 0 97 234q-48 49-72.5 110T0 468.5Q0 532 24.5 593T97 703q49 48 110 72.5T331.5 800q63.5 0 124.5-24.5T566 703zm-253-36q-15 0-26-10t-11-25q0-14 11-24.5t26-10.5q15 0 26 10.5t11 24.5q0 15-11 25t-26 10zm66-301h-34v188h-86v-17h35V366h-35v-17h120v17z"/><glyph glyph-name="e0d5" unicode="" horiz-adv-x="696" d="M566 703q48-49 72.5-110T663 468.5q0-63.5-24.5-124.5T566 234q-26-26-65.5-65T423 92L331 0 97 234q-48 49-72.5 110T0 468.5Q0 532 24.5 593T97 703q49 48 110 72.5T331.5 800q63.5 0 124.5-24.5T566 703zM330 175q30 0 47 16 17 17 17 42 0 24-18 41-19 17-46 17-25 0-46-16-18-17-18-42t18-41q19-17 46-17zm-58 511l12-347h90l14 347H272z"/><glyph glyph-name="e0d6" unicode="" horiz-adv-x="840" d="M638 188L400-50 162 188q-50 49-74.5 111.5T63 426.5Q63 491 88 553t74 111q49 49 111 74t127 25q65 0 127-25t111-74q49-49 73.5-111T736 426.5q0-64.5-24.5-127T638 188z"/><glyph glyph-name="e0d7" unicode="" horiz-adv-x="840" d="M804 747V363q0-80-30-149.5t-82.5-122Q639 39 569 9T420-21q-80 0-149.5 30t-122 82.5Q96 144 66 213.5T36 363q0 79 30 149t82.5 122.5Q201 687 270.5 717T420 747h384zM420 596q-22 0-37-14.5T368 547q0-20 15-34.5t37-14.5q22 0 37 14.5t15 34.5q0 20-15 34.5T420 596zm75-435h-37v286H345v-18h37V161h-37v-18h150v18z"/><glyph glyph-name="e0d8" unicode="" horiz-adv-x="840" d="M420 749q80 0 150.5-30.5t123-83q52.5-52.5 83-123T807 362q0-80-30.5-150.5t-83-123Q641 36 570.5 5.5T420-25q-80 0-150.5 30.5t-123 83q-52.5 52.5-83 123T33 362v387h387z"/><glyph glyph-name="e0d9" unicode="" horiz-adv-x="840" d="M420 749h387V362q0-80-30.5-150.5t-83-123Q641 36 570.5 5.5T420-25q-80 0-150.5 30.5t-123 83q-52.5 52.5-83 123T33 362q0 80 30.5 150.5t83 123q52.5 52.5 123 83T420 749z"/><glyph glyph-name="e0da" unicode="" horiz-adv-x="931" d="M404 446q-27 0-46 18t-19 44q0 26 19 44t46 18q27 0 46-18t19-44q0-26-19-44t-46-18zM451 0H309v23h47v337h-47v23h142V23h48V0h-48z"/><glyph glyph-name="e0db" unicode="" horiz-adv-x="451" d="M109 237q-6 14-9 31-3 18-3 33 0 23 5 46 5 20 15 38 10 19 24 35 8 8 16 16.5t18 16.5q11 8 19.5 16t16.5 16q17 17 26 30 11 15 16 30 6 16 6 36 0 16-6 31-6 13-17 24-13 11-27 17-18 5-36 5-21 0-42.5-4T86 641q-45-18-86-53v162q21 13 43.5 22T91 788q49 12 101 12 26 0 49-3t45-8q43-10 75-35 32-23 50-61 18-36 18-89 0-34-7-59-4-14-9.5-26.5T400 494q-15-24-36-45-11-11-23.5-22.5T314 404q-20-17-33-30-14-12-24-26-9-14-14-28-3-8-4-16.5t-1-17.5q0-14 3-27 5-14 10-22H109zM187 0q-44 0-71 26-29 26-29 64 0 37 29 63 28 25 71 25t71-25q28-25 28-63 0-40-27-65-28-25-72-25z"/><glyph glyph-name="e0dc" unicode="" horiz-adv-x="538" d="M378 258H174v204h204V258z"/><glyph glyph-name="e0dd" unicode="" horiz-adv-x="844" d="M521 253V0H243v253h278zm283 429V0H602v337H160V0H4L0 800h161V531h440v269h81l122-118zM243 800h163V682h54v118h59V606H243v194z"/><glyph glyph-name="e0de" unicode="" horiz-adv-x="491" d="M392 675q21-21 39-44.5t27.5-56.5q9.5-33 9.5-79t-15-112q7 62-5 114-5 22-15 44t-27.5 41Q388 601 363 615.5T303 637V139q-2-37-32.5-71.5T189 14Q159 3 129 1T74 5q-25 6-43.5 20T5 60q-8 21-3.5 43.5T21 147q15 21 39 39t54 29q38 14 73.5 14t62.5-12v463q-1 4-.5 6t.5 4v110h53q7-18 19-38 11-17 27.5-39.5T392 675z"/><glyph glyph-name="e0df" unicode="" horiz-adv-x="722" d="M654 800q15 0 25-9t8-21V30q0-12-9.5-21T654 0H34Q20 0 10 9T0 30v740q0 12 10 21t24 9h620zm-41-549h-31q-1-13-7-24t-14-19.5q-8-8.5-17.5-13T527 190q-8 0-17 4.5t-17 13q-8 8.5-14 19.5t-7 24h-68q-1-13-7-24t-14-19.5q-8-8.5-17.5-13T349 190q-8 0-17 4.5t-17 13q-8 8.5-14 19.5t-7 24h-59q-1-13-7-24t-14-19.5q-8-8.5-17.5-13T180 190q-8 0-17 4.5t-17 13q-8 8.5-14 19.5t-7 24H73V76h543l-3 175zM73 279h52q1 13 7 24t14 19.5q8 8.5 17 13t17 4.5q7 0 16.5-4.5t17.5-13q8-8.5 14-19.5t7-24h59q1 13 7 24t14 19.5q8 8.5 17 13t17 4.5q7 0 16.5-4.5t17.5-13q8-8.5 14-19.5t7-24h68q1 13 7 24t14 19.5q8 8.5 17 13t17 4.5q7 0 16.5-4.5t17.5-13q8-8.5 14-19.5t7-24h31v242H506q-1-13-7-24.5T485 477q-8-8-17.5-13t-16.5-5q-8 0-17 5t-17 13q-8 8-14 19.5t-7 24.5h-90q-1-13-7-24.5T285 477q-8-8-17.5-13t-16.5-5q-7 0-16 5t-17 13q-8 8-14 19.5t-7 24.5H73V279zm546 446H76V549h124q1 12 7 23t14 19q8 8 17 12.5t16 4.5q7 0 16.5-4.5T288 591q8-8 14-19t7-23h90q1 12 7 23t14 19q8 8 17 12.5t17 4.5q7 0 16.5-4.5T488 591q8-8 14-19t7-23h107l3 176z"/><glyph glyph-name="e0e0" unicode="" horiz-adv-x="683" d="M148 599q-1-1-2-1t-3-1q-4-2-4-10 2-11 2.5-22.5T144 542q3-23 7-44.5t10-44.5q8-31 19-60t28-57q12-20 26.5-37.5T267 267q9-8 16 1 6 7-2 15-7 6-13.5 11.5T255 307q-20 22-34 47.5T196 407q-9 24-15 48.5T170 506q-4 20-6.5 40.5T159 588q0 9-11 11zm240-65l-2-1q-11-6-21-11.5T344 511q-1-1-4 0-11 5-20.5 10.5T299 532q-1 1-1.5 1t-1.5 1v-2q2-11 4.5-23t4.5-24q0-3-2-5-8-8-16.5-15.5T270 449l-2-2q1-1 2-1 12-2 23.5-3.5T317 439q2 0 4-2 5-11 10-21t10-21q0-1 .5-1t.5-2q1 2 2 3 5 11 10 21l10 20q0 3 2 3 10 2 19 3t19 3q4 0 12 2l-2 2q-8 8-16.5 16T381 481q-2 2-1 4 1 7 2 13.5t3 13.5q1 5 1.5 10.5T388 534zm142-139q4 7 10 13 9 10 20 17.5t22 12.5l15 7.5q7 3.5 15 8.5 16 7 24 25 2 4 3.5 8t3.5 9q5 19 7 38t2 39v1h-83q-4-46-14-90t-25-89zm-376 0q-15 44-25.5 88T114 574H33q-4 0-2-3 0-9 .5-18.5T33 534q1-11 2.5-21t5.5-20q3-10 8-18.5T62 460q5-4 10.5-7.5T84 446q7-3 13.5-6t13.5-7q13-7 23.5-16t18.5-21q0-1 1-1zm11-34q-7-16-25-19l-6 21q-6 14-15 25t-23 19q-4 2-7.5 3.5T81 414q-17 8-32.5 18T22 457q-6 8-8.5 16T9 489q-3 14-4.5 28.5T2 546q-1 17-1 33t-1 32v4h113v25h458v-25h112v-3q0-38-3-77-2-13-3.5-25t-5.5-24q-3-12-9.5-21.5T647 446q-16-16-42-29-10-4-20-10-28-13-41-46-2-5-3-10t-3-10q-13 0-25 18 0-1-.5-1.5t-.5-1.5q-14-31-31.5-59.5T440 243q-7-6-13.5-11.5T413 220q-2-2-2-4 0-16 10-34 6-11 13.5-20.5T450 142q10-11 19-22l18-22q6-7 10.5-15t8.5-16q2-4 4-7.5t3-8.5q1-5 1-15 1-8 .5-17T514 2V0H163v40q1 11 8 26 8 17 19.5 31.5T215 126q8 9 16.5 18.5T248 164q5 7 10 14.5t7 16.5q3 10 3 21-1 1-1 2v1q-19 13-33.5 30T206 284q-11 15-19 31t-16 33q-2 5-6 13z"/><glyph glyph-name="e0e1" unicode="" horiz-adv-x="1448" d="M751 592h129v-62H751v62zm0-166h285v-61H751v61zm346 0h132v-61h-132v61zM751 248h478v-61H751v61zM257 420q-9 32-12.5 61.5t.5 54.5q3 17 5 28.5t7 20.5q5 10 13.5 18.5T288 619q9 7 22.5 13.5T340 644q33 9 77 9 26 0 44.5-4t35.5-11q16-10 27-19.5t19-20.5q16-22 21-55 2-14 3.5-28t-.5-28q1-14-1.5-25t-4.5-21q-5-20-9-24 0 7-1.5 11.5T549 435v9q-19 0-34 10-9 5-17 11.5T481 481h-2q-1 0-1-3v-6q0-6 3-9-7 2-15 4.5t-15 4.5q-8 2-13 6t-12 9q-5 5-9 11.5t-9 13.5q-3 0-3-6v-9q0-3 1.5-7t1.5-6q-10 2-17 6.5t-14 9.5q-13 8-21 21-5 7-7.5 16t-2.5 18q-5-9-11-18.5T322 518q-9-9-17-16.5T288 484q-9-9-15.5-16.5T261 451q-3-5-3.5-13.5T257 420zm148-175q12 0 24 12.5t23.5 27Q464 299 474 310t19 9q39-5 65-19 14-4 25.5-10.5T604 276q9-7 16-14l14-14q14-18 21.5-37t9.5-42H150q2 23 9.5 42t21.5 37q7 10 14 18.5t16 15.5q10 7 21 11.5t25 9.5q14 5 30 9.5t35 6.5q9 1 18.5-10.5T360 283q10-14 21-26t24-12zM172 739q-23 0-43.5-9T93 705.5Q78 690 69.5 669T61 625V175q0-23 8.5-44T93 94.5Q108 79 128.5 70t43.5-9h1036q23 0 43 9t35 24.5q15 15.5 23.5 36.5t8.5 44v450q0 23-8.5 44t-23.5 36.5q-15 15.5-35 24.5t-43 9H172zM1208 0H172q-36 0-67 14T50.5 52q-23.5 24-37 55.5T0 175v450q0 36 13.5 67.5t37 55.5Q74 772 105 786t67 14h1036q36 0 67-14t54-38q23-24 36.5-55.5T1379 625V175q0-36-13.5-67.5T1329 52q-23-24-54-38t-67-14z"/><glyph glyph-name="e0e2" unicode="" horiz-adv-x="846" d="M496 240l-93 95h53l63-70 63 70h53l-94-95 94-94h-53l-63 69-63-69h-53l93 94zM175 369h-74v74h74v-74zm452 1h-74v73h74v-73zM510 740h62V561h-62v179zm-33-370h-74v73h74v-73zM325 158h-73v73h73v-73zm0 105h-73v74h73v-74zm0 107h-73v73h73v-73zM180 740h61V561h-61v179zm-5-582h-74v73h74v-73zm0 105h-74v74h74v-74zm499-153v378H54V110h620zm-71 541h135V60H0v591h147V530h122v121h210V530h122v121h2z"/></font>
</svg>
