<svg data-name="Ebene 1" xmlns="http://www.w3.org/2000/svg" viewBox="0 0 116.71 125.37"><path d="M67.13 59.01h12.28m-42.16 0h12.28" fill="none" stroke-miterlimit="10" stroke="#000" stroke-width="2"/><path d="M65.61 77.29a20.25 20.25 0 1 0-14.52 0l-13.64 35.56a58.33 58.33 0 1 1 41.81 0L65.61 77.29" fill="#e3032e"/><path d="M62.78 71.92a13.77 13.77 0 1 0-9.9 0" stroke-width="3" stroke="#0c2231" fill="none" stroke-miterlimit="10"/><path d="M57.81 86.95a23 23 0 0 1-7.83-1.36l-13 36.14a61.44 61.44 0 0 0 42.73-.41l-13-36.16a22.88 22.88 0 0 1-8.9 1.79z" fill="#0c2231"/><rect x="49.26" y="100.92" width="11.25" height="2.68" rx="1.26" fill="#75be8e"/><rect x="56.74" y="106.25" width="10.83" height="2.68" rx="1.26" fill="#e8497f"/><rect x="49.26" y="111.59" width="18.32" height="2.68" rx="1.26" fill="#7dbc69"/><rect x="49.14" y="106.25" width="6.89" height="2.68" rx="1.26" fill="#bcd2e6"/><rect x="61.19" y="100.92" width="6.38" height="2.68" rx="1.26" fill="#e9aa00"/><path d="M58.6 38.2V51m0 20.28v12.8" stroke="#0c2231" fill="none" stroke-miterlimit="10" stroke-width="2"/></svg>