<svg data-name="Ebene 1" xmlns="http://www.w3.org/2000/svg" viewBox="0 0 109.37 117.49"><path d="M61.49 72.42a19 19 0 10-13.61 0L35.1 105.79a54.65 54.65 0 1139.18 0L61.49 72.42" fill="#e3032e"/><path d="M58.83 67.39a12.9 12.9 0 10-9.28 0" fill="none" stroke="#0c2231" stroke-miterlimit="10" stroke-width="3"/><path d="M54.17 81.48a21.58 21.58 0 01-7.34-1.28l-12.18 33.87a57.59 57.59 0 0040.07-.38l-12.19-33.9a21.55 21.55 0 01-8.36 1.69z" fill="#0c2231"/><rect x="46.16" y="94.57" width="10.54" height="2.51" rx="1.26" fill="#75be8e"/><rect x="53.17" y="99.57" width="10.15" height="2.51" rx="1.26" fill="#e8497f"/><rect x="46.16" y="104.57" width="17.16" height="2.51" rx="1.26" fill="#7dbc69"/><rect x="46.05" y="99.57" width="6.46" height="2.51" rx="1.26" fill="#bcd2e6"/><rect x="57.34" y="94.57" width="5.98" height="2.51" rx="1.26" fill="#e9aa00"/></svg>