<svg id="Ebene_4" data-name="Ebene 4" xmlns="http://www.w3.org/2000/svg" viewBox="0 0 115.39 117.04"><defs><style>.cls-2{fill:none;stroke:#fff;stroke-linejoin:round;stroke-width:2px}</style></defs><path d="M100.09 132.05a56.19 56.19 0 1 0-40.42 0m40.78.95a57.19 57.19 0 1 0-41.14 0m27.42-35.67a18.92 18.92 0 1 0-13.56 0m13.92.94a19.94 19.94 0 1 0-14.28 0m18.61 12.85A33.81 33.81 0 1 0 67.2 111m28.29 11.37a45.31 45.31 0 1 0-32.46-.1" transform="translate(-22.14 -21.96)" fill="none" stroke="#fff" stroke-linejoin="round"/><circle class="cls-2" cx="40.86" cy="112.04" r="4"/><circle class="cls-2" cx="60.86" cy="77.04" r="4"/></svg>