<svg id="Ebene_3" data-name="Ebene 3" xmlns="http://www.w3.org/2000/svg" viewBox="0 0 117.39 120.54"><defs><style>.cls-1,.cls-2,.cls-3{fill:none;stroke:#e3032e;stroke-linejoin:round}.cls-2{stroke-width:3px}.cls-3{stroke-width:2px}</style></defs><path class="cls-1" d="M101.09 130.05a56.19 56.19 0 1 0-40.42 0" transform="translate(-22.14 -18.96)"/><path class="cls-2" d="M101.45 131a57.19 57.19 0 1 0-41.14 0" transform="translate(-22.14 -18.96)"/><path class="cls-1" d="M87.73 95.33a18.92 18.92 0 1 0-13.56 0" transform="translate(-22.14 -18.96)"/><path class="cls-3" d="M88.09 96.27a19.94 19.94 0 1 0-14.28 0m18.61 12.85A33.81 33.81 0 1 0 68.2 109m28.29 11.37a45.31 45.31 0 1 0-32.46-.1" transform="translate(-22.14 -18.96)"/><circle class="cls-2" cx="43.86" cy="113.04" r="6"/><circle class="cls-3" cx="61.86" cy="78.04" r="5"/></svg>